<svg xmlns="http://www.w3.org/2000/svg" xmlns:xlink="http://www.w3.org/1999/xlink" width="408" height="307" viewBox="0 0 408 307">
  <defs>
    <style>
      .cls-1 {
        clip-path: url(#clip-Android_Mobile_2);
      }

      .cls-2 {
        fill: #54b686;
      }

      .cls-3 {
        fill: none;
        stroke: #fff;
        stroke-width: 2px;
      }

      .cls-4 {
        fill: #fff;
      }

      .cls-5 {
        filter: url(#Path_54);
      }
    </style>
    <filter id="Path_54" x="53" y="23" width="302" height="262" filterUnits="userSpaceOnUse">
      <feOffset input="SourceAlpha"/>
      <feGaussianBlur stdDeviation="20" result="blur"/>
      <feFlood flood-opacity="0.122"/>
      <feComposite operator="in" in2="blur"/>
      <feComposite in="SourceGraphic"/>
    </filter>
    <clipPath id="clip-Android_Mobile_2">
      <rect width="408" height="307"/>
    </clipPath>
  </defs>
  <g id="Android_Mobile_2" data-name="Android Mobile – 2" class="cls-1">
    <g class="cls-5" transform="matrix(1, 0, 0, 1, 0, 0)">
      <path id="Path_54-2" data-name="Path 54" class="cls-2" d="M42,0h98a42,42,0,0,1,42,42v58a42,42,0,0,1-42,42H42A42,42,0,0,1,0,100V42A42,42,0,0,1,42,0Z" transform="translate(113 83)"/>
    </g>
    <g id="Group_4" data-name="Group 4" transform="translate(52 25)">
      <line id="Line_4" data-name="Line 4" class="cls-3" y1="23" transform="translate(168.5 96.5)"/>
      <line id="Line_5" data-name="Line 5" class="cls-3" x2="70" transform="translate(99.5 97.5)"/>
      <line id="Line_6" data-name="Line 6" class="cls-3" y2="67" transform="translate(100.5 96.5)"/>
      <line id="Line_7" data-name="Line 7" class="cls-3" x1="23" transform="translate(99.5 163.5)"/>
      <path id="Path_32" data-name="Path 32" class="cls-4" d="M9.5,17H8.712L8.28,11.132Q8.19,9.71,8.154,8.468L5.67,15.794H4.9L2.484,8.468l-.018.558q-.018.27-.045.9T2.34,11.114L1.926,17H1.152l.72-9.4H2.9l2.394,7.344L7.74,7.6H8.766Zm8.55-5.076q0,.378-.036.738H12.276a4.954,4.954,0,0,0,.8,2.9,2.347,2.347,0,0,0,1.935.918,3.067,3.067,0,0,0,1.2-.216,4.352,4.352,0,0,0,1.089-.7l.414.5a4.684,4.684,0,0,1-1.269.846,3.57,3.57,0,0,1-1.449.288,3.1,3.1,0,0,1-2.61-1.251,5.8,5.8,0,0,1-.954-3.573,6.308,6.308,0,0,1,.909-3.645,2.862,2.862,0,0,1,2.475-1.305A2.762,2.762,0,0,1,17.226,8.6,5.719,5.719,0,0,1,18.054,11.924Zm-.81-.27a4.8,4.8,0,0,0-.594-2.61,2.015,2.015,0,0,0-1.818-.918,2.127,2.127,0,0,0-1.8.936,5.39,5.39,0,0,0-.756,2.952h4.968Zm5.544.306L25.794,17h-.936L22.3,12.464,19.746,17h-.9l2.988-5L19.242,7.6h.9L22.32,11.51l2.2-3.906h.9ZM32.4,15.146a2.311,2.311,0,0,0,.162.99,1.028,1.028,0,0,0,.54.486l-.18.576a1.542,1.542,0,0,1-.873-.522,2,2,0,0,1-.351-1.1,2.891,2.891,0,0,1-2.646,1.62,2.484,2.484,0,0,1-1.926-.765,2.9,2.9,0,0,1-.7-2.043,2.725,2.725,0,0,1,.945-2.223,3.988,3.988,0,0,1,2.619-.783h1.6V10.3a2.476,2.476,0,0,0-.459-1.647,1.891,1.891,0,0,0-1.5-.531,6.264,6.264,0,0,0-2.34.54l-.234-.63A6.918,6.918,0,0,1,29.7,7.424q2.7,0,2.7,2.826Zm-3.258,1.368a2.635,2.635,0,0,0,2.448-1.8v-2.7H30.078q-2.79,0-2.79,2.358a2.309,2.309,0,0,0,.495,1.584A1.723,1.723,0,0,0,29.142,16.514ZM40.806,17V12.464H36.432V17h-.81V7.6h.81v4.158h4.374V7.6h.81V17Zm10.1,0h-.792V10.592a19.6,19.6,0,0,1,.108-2.016L45.792,17h-.936V7.6h.792v6.012q0,1.152-.09,2.412L49.968,7.6H50.9Zm8.712-9.4L56.934,11.96,60.066,17h-.918l-2.88-4.662H54.954V17h-.81V7.6h.81v4.068h1.332L58.77,7.6Zm4.95-.18a3.066,3.066,0,0,1,2.6,1.233,5.943,5.943,0,0,1,.927,3.609,6.074,6.074,0,0,1-.945,3.645,3.263,3.263,0,0,1-5.193,0,6.012,6.012,0,0,1-.936-3.591A5.954,5.954,0,0,1,61.974,8.7,3.063,3.063,0,0,1,64.566,7.424Zm0,.7A2.272,2.272,0,0,0,62.577,9.17a5.638,5.638,0,0,0-.711,3.15,5.623,5.623,0,0,0,.7,3.105,2.4,2.4,0,0,0,3.978,0,5.744,5.744,0,0,0,.7-3.159,5.626,5.626,0,0,0-.693-3.1A2.25,2.25,0,0,0,64.566,8.126Zm5.454,3.6v-.72h4.194v.72ZM9.5,35H8.712L8.28,29.132q-.09-1.422-.126-2.664L5.67,33.794H4.9L2.484,26.468l-.018.558q-.018.27-.045.9T2.34,29.114L1.926,35H1.152l.72-9.4H2.9l2.394,7.344L7.74,25.6H8.766ZM17.3,33.146a2.311,2.311,0,0,0,.162.99,1.028,1.028,0,0,0,.54.486l-.18.576a1.542,1.542,0,0,1-.873-.522,2,2,0,0,1-.351-1.1A2.891,2.891,0,0,1,13.95,35.2a2.484,2.484,0,0,1-1.926-.765,2.9,2.9,0,0,1-.7-2.043,2.725,2.725,0,0,1,.945-2.223,3.988,3.988,0,0,1,2.619-.783h1.6V28.3a2.476,2.476,0,0,0-.459-1.647,1.891,1.891,0,0,0-1.5-.531,6.264,6.264,0,0,0-2.34.54l-.234-.63a6.918,6.918,0,0,1,2.646-.612q2.7,0,2.7,2.826ZM14.04,34.514a2.635,2.635,0,0,0,2.448-1.8v-2.7H14.976q-2.79,0-2.79,2.358a2.309,2.309,0,0,0,.495,1.584A1.723,1.723,0,0,0,14.04,34.514ZM25.218,25.6l-.108.72H22.284V35h-.81V26.324H18.522V25.6Zm7.056,4.32q0,.378-.036.738H26.5a4.954,4.954,0,0,0,.8,2.9,2.347,2.347,0,0,0,1.935.918,3.067,3.067,0,0,0,1.2-.216,4.352,4.352,0,0,0,1.089-.7l.414.5a4.684,4.684,0,0,1-1.269.846,3.57,3.57,0,0,1-1.449.288,3.1,3.1,0,0,1-2.61-1.251,5.8,5.8,0,0,1-.954-3.573,6.308,6.308,0,0,1,.909-3.645,2.862,2.862,0,0,1,2.475-1.305A2.762,2.762,0,0,1,31.446,26.6,5.719,5.719,0,0,1,32.274,29.924Zm-.81-.27a4.8,4.8,0,0,0-.594-2.61,2.015,2.015,0,0,0-1.818-.918,2.127,2.127,0,0,0-1.8.936,5.39,5.39,0,0,0-.756,2.952h4.968Zm11,5.346H41.67l-.432-5.868q-.09-1.422-.126-2.664l-2.484,7.326h-.774l-2.412-7.326-.018.558q-.018.27-.045.9T35.3,29.114L34.884,35H34.11l.72-9.4h1.026l2.394,7.344L40.7,25.6h1.026Zm7.794-1.854a2.311,2.311,0,0,0,.162.99,1.028,1.028,0,0,0,.54.486l-.18.576a1.542,1.542,0,0,1-.873-.522,2,2,0,0,1-.351-1.1,2.891,2.891,0,0,1-2.646,1.62,2.484,2.484,0,0,1-1.926-.765,2.9,2.9,0,0,1-.7-2.043,2.725,2.725,0,0,1,.945-2.223,3.988,3.988,0,0,1,2.619-.783h1.6V28.3a2.476,2.476,0,0,0-.459-1.647,1.891,1.891,0,0,0-1.5-.531,6.264,6.264,0,0,0-2.34.54l-.234-.63a6.918,6.918,0,0,1,2.646-.612q2.7,0,2.7,2.826ZM47,34.514a2.635,2.635,0,0,0,2.448-1.8v-2.7H47.934q-2.79,0-2.79,2.358a2.309,2.309,0,0,0,.495,1.584A1.723,1.723,0,0,0,47,34.514ZM58.176,25.6l-.108.72H55.242V35h-.81V26.324H51.48V25.6ZM65.808,35h-.792V28.592a19.6,19.6,0,0,1,.108-2.016L60.7,35H59.76V25.6h.792v6.012q0,1.152-.09,2.412l4.41-8.424h.936Zm8.406-9.4V35H73.4V30.518A3.358,3.358,0,0,1,70.7,31.8a2.494,2.494,0,0,1-1.773-.63,2.439,2.439,0,0,1-.675-1.872V25.6h.81v3.618q0,1.872,1.782,1.872a2.968,2.968,0,0,0,1.458-.378,3.126,3.126,0,0,0,1.1-.99V25.6Zm9.162,4.32q0,.378-.036.738H77.6a4.954,4.954,0,0,0,.8,2.9,2.347,2.347,0,0,0,1.935.918,3.067,3.067,0,0,0,1.2-.216,4.352,4.352,0,0,0,1.089-.7l.414.5a4.684,4.684,0,0,1-1.269.846,3.57,3.57,0,0,1-1.449.288,3.1,3.1,0,0,1-2.61-1.251,5.8,5.8,0,0,1-.954-3.573,6.308,6.308,0,0,1,.909-3.645,2.862,2.862,0,0,1,2.475-1.305A2.762,2.762,0,0,1,82.548,26.6,5.719,5.719,0,0,1,83.376,29.924Zm-.81-.27a4.8,4.8,0,0,0-.594-2.61,2.015,2.015,0,0,0-1.818-.918,2.127,2.127,0,0,0-1.8.936,5.39,5.39,0,0,0-.756,2.952h4.968Zm6.138-4.23a3.175,3.175,0,0,1,2.322.918l-.414.54a3.329,3.329,0,0,0-.873-.567,2.562,2.562,0,0,0-1.017-.189,2.317,2.317,0,0,0-2,1.053,5.558,5.558,0,0,0-.738,3.177,5.352,5.352,0,0,0,.729,3.1A2.318,2.318,0,0,0,88.7,34.478a2.977,2.977,0,0,0,1.98-.792l.414.5A3.39,3.39,0,0,1,88.7,35.2a3.137,3.137,0,0,1-2.619-1.242,5.783,5.783,0,0,1-.963-3.6,5.955,5.955,0,0,1,.972-3.636A3.1,3.1,0,0,1,88.7,25.424Zm9.81.18L95.832,29.96,98.964,35h-.918l-2.88-4.662H93.852V35h-.81V25.6h.81v4.068h1.332L97.668,25.6Zm8.262,9.4h-.792V28.592a19.6,19.6,0,0,1,.108-2.016L101.664,35h-.936V25.6h.792v6.012q0,1.152-.09,2.412l4.41-8.424h.936Zm9.288,0h-.792V28.592a19.6,19.6,0,0,1,.108-2.016L110.952,35h-.936V25.6h.792v6.012q0,1.152-.09,2.412l4.41-8.424h.936Zm-3.042-11.826a2.226,2.226,0,0,1-1.359-.4,1.615,1.615,0,0,1-.657-1.089l.558-.126a1.341,1.341,0,0,0,1.458.918,1.355,1.355,0,0,0,1.476-.918l.558.126a1.6,1.6,0,0,1-.666,1.089A2.266,2.266,0,0,1,113.022,23.174Z" transform="translate(113 120)"/>
    </g>
  </g>
</svg>
