<svg width="139" height="118" viewBox="0 0 139 118" fill="none" xmlns="http://www.w3.org/2000/svg">
<path d="M23.0236 104.336C23.0236 99.968 19.8556 97.112 14.8156 97.064V95.528H13.4716V97.064C8.40763 97.112 5.26363 99.968 5.26363 104.336C5.26363 108.44 8.40763 111.224 13.4716 111.248V113H14.8156V111.248C19.8556 111.224 23.0236 108.44 23.0236 104.336ZM6.67963 104.336C6.67963 100.808 9.15163 98.36 13.4956 98.336V110C9.22363 109.976 6.67963 107.648 6.67963 104.336ZM14.8156 110V98.336C19.1356 98.384 21.6076 100.784 21.6076 104.336C21.6076 107.648 19.0876 109.952 14.8156 110ZM31.3211 113.12C34.6571 113.12 37.2491 110.696 37.2491 107.192C37.2491 103.64 34.6571 101.24 31.3211 101.24C27.7691 101.24 25.3931 103.904 25.3931 107.192C25.3931 110.48 27.7691 113.12 31.3211 113.12ZM31.3211 111.92C28.5371 111.92 26.6891 109.784 26.6891 107.192C26.6891 104.552 28.5371 102.416 31.3211 102.416C33.8891 102.416 35.9531 104.336 35.9531 107.192C35.9531 110 33.9131 111.92 31.3211 111.92ZM42.6331 113H43.9051V102.512H48.0571V101.36H38.4811V102.512H42.6331V113ZM55.2508 113.12C58.5868 113.12 61.1788 110.696 61.1788 107.192C61.1788 103.64 58.5868 101.24 55.2508 101.24C51.6988 101.24 49.3228 103.904 49.3228 107.192C49.3228 110.48 51.6988 113.12 55.2508 113.12ZM55.2508 111.92C52.4668 111.92 50.6188 109.784 50.6188 107.192C50.6188 104.552 52.4668 102.416 55.2508 102.416C57.8188 102.416 59.8828 104.336 59.8828 107.192C59.8828 110 57.8428 111.92 55.2508 111.92ZM69.0733 113.12C71.1853 113.12 72.7933 112.016 73.6333 110.36L73.6813 110.384V113H74.9053V101.36H73.6333V104H73.6093C72.7453 102.272 71.0413 101.24 69.0733 101.24C65.7133 101.24 63.3373 103.88 63.3373 107.264C63.3373 110.792 65.8813 113.12 69.0733 113.12ZM69.2173 111.92C66.4813 111.92 64.6573 109.88 64.6573 107.288C64.6573 104.336 66.6973 102.416 69.2413 102.416C71.8573 102.416 73.6813 104.576 73.6813 107.288C73.6813 110.072 71.6653 111.92 69.2173 111.92ZM78.497 117.752H79.769V110.456L79.817 110.432C80.657 112.04 82.265 113.12 84.377 113.12C87.569 113.12 90.089 110.792 90.089 107.264C90.089 103.88 87.737 101.24 84.377 101.24C82.385 101.24 80.681 102.272 79.817 103.976H79.769V101.36H78.497V117.752ZM84.233 111.92C81.737 111.92 79.745 110.072 79.745 107.288C79.745 104.576 81.521 102.416 84.209 102.416C86.729 102.416 88.769 104.336 88.769 107.288C88.769 109.88 86.945 111.92 84.233 111.92ZM91.3378 113H92.8258L96.4258 108.224H96.4498L100.074 113H101.586L97.2178 107.12L101.562 101.36H100.026L96.4498 106.136H96.4018L92.8498 101.36H91.3138L95.6818 107.144L91.3378 113ZM104.161 113H105.409L113.041 103.328H113.089V113H114.361V101.36H113.161L105.481 111.104H105.433V101.36H104.161V113ZM118.106 113H123.554C126.578 113 127.85 111.752 127.85 109.832C127.85 108.08 126.698 107.144 125.33 106.928V106.904C126.554 106.52 127.274 105.56 127.274 104.168C127.274 102.296 125.882 101.36 123.434 101.36H118.106V113ZM119.378 106.472V102.464H123.338C125.018 102.464 126.002 103.064 126.002 104.408C126.002 105.752 125.042 106.472 123.434 106.472H119.378ZM119.378 111.896V107.528H123.602C125.522 107.528 126.554 108.272 126.554 109.736C126.554 111.152 125.57 111.896 123.458 111.896H119.378Z" fill="white"/>
<path d="M90.5237 29.3008V0.680908" stroke="white" stroke-width="2"/>
<path d="M4.65146 1.92529H91.7682Z" fill="white"/>
<path d="M4.65146 1.92529H91.7682" stroke="white" stroke-width="2"/>
<path d="M5.896 0.680908V84.0519" stroke="white" stroke-width="2"/>
<path d="M33.2756 84.052H4.65146" stroke="white" stroke-width="2"/>
<path d="M32.0161 38.4991C32.4199 38.4808 32.8222 38.5604 33.1886 38.7312C33.5551 38.9019 33.8748 39.1587 34.1206 39.4796C34.6643 40.2648 34.9306 41.2089 34.8772 42.1624V51.0769H33.8368V42.3055C33.8887 41.5449 33.7118 40.7861 33.329 40.1267C33.1698 39.8902 32.9525 39.6987 32.698 39.5703C32.4435 39.442 32.1602 39.3812 31.8754 39.3938C30.6774 39.3938 29.5897 40.2843 28.6123 42.0654V51.0769H27.5507V42.3055C27.6014 41.5445 27.4233 40.7857 27.0392 40.1267C26.8795 39.8907 26.6618 39.6998 26.407 39.5721C26.1523 39.4444 25.869 39.3843 25.5844 39.3975C24.3863 39.3975 23.3077 40.288 22.3486 42.0691V51.0769H21.2808V38.7355H22.1993L22.2938 40.887C22.6828 40.2032 23.2071 39.6058 23.8346 39.1312C24.3866 38.7159 25.059 38.4919 25.7499 38.4928C26.4147 38.4702 27.0616 38.7103 27.5507 39.1611C28.0539 39.6597 28.3852 40.3056 28.4965 41.0052C28.8958 40.2989 29.4284 39.6769 30.0647 39.1735C30.6209 38.736 31.3083 38.4984 32.0161 38.4991V38.4991ZM46.0381 48.6417C46.013 49.0855 46.0856 49.5294 46.251 49.942C46.4018 50.2341 46.654 50.461 46.9603 50.5804L46.7239 51.337C46.2748 51.2448 45.8703 51.0031 45.5764 50.6513C45.2846 50.2262 45.1245 49.7246 45.1159 49.2091C44.7987 49.8574 44.3032 50.4018 43.6876 50.7787C43.072 51.1555 42.3617 51.3492 41.64 51.337C41.1708 51.3616 40.7019 51.2846 40.2652 51.1113C39.8285 50.9379 39.4344 50.6724 39.1099 50.3328C38.4686 49.59 38.1383 48.6287 38.1877 47.6487C38.1566 47.0992 38.2528 46.55 38.4686 46.0436C38.6845 45.5373 39.0142 45.0876 39.4322 44.7295C40.422 43.9925 41.6402 43.6285 42.8721 43.7017H44.9741V42.2831C45.0363 41.5136 44.8228 40.747 44.3717 40.1204C44.113 39.8676 43.8023 39.6741 43.4612 39.5535C43.1201 39.433 42.7568 39.3882 42.3967 39.4224C41.3358 39.4584 40.292 39.6992 39.3227 40.1316L39.0153 39.3042C40.1074 38.8095 41.2866 38.5359 42.485 38.4991C44.8496 38.4991 46.0319 39.7364 46.0319 42.2109L46.0381 48.6417ZM41.7582 50.4385C42.4727 50.4245 43.1654 50.1897 43.7412 49.7664C44.317 49.3431 44.7476 48.752 44.9741 48.0743V44.5279H42.9828C40.5394 44.5279 39.3177 45.5603 39.3177 47.6251C39.2694 48.3753 39.5013 49.1167 39.9686 49.7056C40.1942 49.9524 40.4717 50.1461 40.7812 50.2728C41.0906 50.3995 41.4243 50.4561 41.7582 50.4385V50.4385ZM55.4281 50.5792C54.768 51.0776 53.9615 51.3436 53.1344 51.3357C52.7723 51.3559 52.4101 51.2988 52.0718 51.1684C51.7334 51.038 51.4266 50.8371 51.1718 50.5792C50.6658 49.9808 50.4115 49.2096 50.4624 48.4277V39.6289H48.6392V38.7355H50.4599V35.7329L51.524 35.6085V38.7355H54.4561L54.308 39.6289H51.524V48.3767C51.524 49.7164 52.0915 50.3863 53.2265 50.3863C53.8502 50.3788 54.4583 50.1898 54.9763 49.8425L55.4281 50.5792ZM62.38 38.4978C62.8057 38.4733 63.2313 38.5481 63.6231 38.7163C64.0149 38.8845 64.3622 39.1416 64.6376 39.4672C65.207 40.2461 65.4869 41.1993 65.4291 42.1624V51.0769H64.3638V42.3055C64.3638 40.3668 63.6465 39.3975 62.212 39.3975C61.4914 39.3961 60.793 39.647 60.2382 40.1068C59.572 40.6703 59.0152 41.3515 58.5954 42.1164V51.0769H57.5313V33.6996L58.5954 33.5578V40.9342C59.0309 40.2325 59.5965 39.6205 60.2618 39.1312C60.8832 38.7037 61.6234 38.4825 62.3775 38.4991L62.38 38.4978ZM77.5806 44.4097C77.5806 44.7415 77.5649 45.0646 77.5333 45.379H69.989C69.9372 46.7263 70.3051 48.0563 71.0419 49.1855C71.3395 49.5736 71.7252 49.8853 72.1671 50.095C72.6089 50.3046 73.0943 50.4062 73.5832 50.3913C74.1213 50.4027 74.6562 50.3062 75.1563 50.1075C75.6758 49.8731 76.1574 49.5623 76.585 49.1855L77.1289 49.8475C76.6374 50.3065 76.0741 50.6819 75.4612 50.9587C74.8598 51.2143 74.2117 51.3414 73.5583 51.332C72.8964 51.3572 72.2383 51.2208 71.6409 50.9346C71.0435 50.6484 70.5248 50.2211 70.1297 49.6894C69.2107 48.3041 68.7706 46.656 68.8764 44.997C68.779 43.3167 69.1957 41.6465 70.0712 40.2088C70.4211 39.6689 70.9037 39.2279 71.4729 38.9279C72.042 38.6279 72.6787 38.479 73.3219 38.4953C73.9381 38.4627 74.5524 38.5878 75.1069 38.8586C75.6613 39.1295 76.1375 39.5372 76.4904 40.0433C77.2916 41.3532 77.6721 42.877 77.5806 44.4097V44.4097ZM76.5166 44.0551C76.5875 42.8608 76.3173 41.6709 75.7375 40.6244C75.4821 40.2299 75.1263 39.9105 74.7065 39.699C74.2868 39.4876 73.8183 39.3916 73.3493 39.4211C72.8839 39.4129 72.4238 39.5211 72.0109 39.7358C71.5979 39.9505 71.2452 40.2649 70.9847 40.6505C70.2866 41.8203 69.9409 43.1666 69.989 44.5279H76.5153L76.5166 44.0551ZM91.7682 38.4991C92.1721 38.4808 92.5744 38.5604 92.9408 38.7312C93.3072 38.9019 93.627 39.1587 93.8727 39.4796C94.4165 40.2648 94.6827 41.2089 94.6294 42.1624V51.0769H93.589V42.3055C93.6412 41.545 93.4648 40.7862 93.0824 40.1267C92.9232 39.8902 92.706 39.6987 92.4514 39.5703C92.1969 39.442 91.9136 39.3812 91.6288 39.3938C90.4308 39.3938 89.3431 40.2843 88.3657 42.0654V51.0769H87.3004V42.3055C87.3515 41.5446 87.1738 40.7858 86.7901 40.1267C86.6309 39.8902 86.4136 39.6987 86.1591 39.5703C85.9046 39.442 85.6213 39.3812 85.3365 39.3938C84.1385 39.3938 83.0599 40.2843 82.1008 42.0654V51.0769H81.0367V38.7355H81.9589L82.0535 40.887C82.4406 40.2038 82.9627 39.6064 83.588 39.1312C84.1401 38.7159 84.8124 38.4919 85.5033 38.4928C86.1659 38.4695 86.8112 38.7073 87.3004 39.1548C87.8035 39.6535 88.1348 40.2994 88.2462 40.999C88.647 40.2923 89.1812 39.6702 89.8193 39.1673C90.3757 38.7325 91.0621 38.4972 91.7682 38.4991V38.4991ZM105.79 48.6417C105.765 49.0855 105.838 49.5294 106.003 49.942C106.154 50.2341 106.406 50.461 106.712 50.5804L106.476 51.337C106.027 51.2449 105.622 51.0032 105.329 50.6513C105.037 50.2262 104.877 49.7246 104.868 49.2091C104.551 49.8574 104.055 50.4018 103.44 50.7787C102.824 51.1555 102.114 51.3492 101.392 51.337C100.923 51.3612 100.454 51.2839 100.017 51.1101C99.5804 50.9364 99.1864 50.6704 98.862 50.3303C98.2207 49.5875 97.8905 48.6262 97.9398 47.6462C97.9088 47.0967 98.0049 46.5475 98.2208 46.0412C98.4366 45.5349 98.7664 45.0851 99.1844 44.727C100.174 43.9898 101.393 43.6258 102.625 43.6992H104.73V42.2806C104.792 41.511 104.578 40.7444 104.126 40.118C103.868 39.8651 103.557 39.6716 103.216 39.5511C102.875 39.4305 102.511 39.3857 102.151 39.4199C101.09 39.4559 100.047 39.6967 99.0773 40.1292L98.7699 39.3017C99.8641 38.8066 101.045 38.5334 102.246 38.4978C104.61 38.4978 105.793 39.7351 105.793 42.2097L105.79 48.6417ZM101.51 50.4385C102.225 50.4245 102.918 50.1897 103.493 49.7664C104.069 49.3431 104.5 48.752 104.726 48.0743V44.5279H102.735C100.292 44.5279 99.0699 45.5603 99.0699 47.6251C99.0212 48.3751 99.2527 49.1165 99.7195 49.7056C99.9454 49.9527 100.223 50.1466 100.533 50.2733C100.843 50.4001 101.177 50.4565 101.512 50.4385H101.51ZM115.178 50.5804C114.518 51.0789 113.711 51.3449 112.884 51.337C112.522 51.3571 112.16 51.3001 111.821 51.1696C111.483 51.0392 111.176 50.8384 110.921 50.5804C110.415 49.9821 110.161 49.2108 110.212 48.4289V39.6289H108.393V38.7355H110.213V35.7329L111.277 35.6085V38.7355H114.21L114.068 39.6339H111.277V48.3816C111.277 49.7214 111.845 50.3913 112.98 50.3913C113.604 50.3838 114.212 50.1948 114.73 49.8475L115.178 50.5804ZM118.346 38.7355V51.0769H117.281V38.7355H118.346ZM117.779 33.5093C117.887 33.5039 117.995 33.5209 118.096 33.5591C118.197 33.5973 118.29 33.656 118.367 33.7313C118.445 33.8067 118.506 33.8973 118.547 33.9974C118.588 34.0974 118.609 34.2049 118.606 34.3131C118.61 34.4198 118.592 34.5262 118.554 34.6257C118.515 34.7252 118.456 34.8157 118.381 34.8917C118.301 34.9681 118.207 35.0275 118.103 35.0662C118 35.105 117.889 35.1222 117.779 35.1169C117.671 35.1206 117.564 35.1015 117.464 35.0607C117.364 35.02 117.274 34.9586 117.2 34.8805C117.056 34.7269 116.975 34.5239 116.975 34.3131C116.975 34.1023 117.056 33.8993 117.2 33.7457C117.275 33.6679 117.365 33.6067 117.464 33.5661C117.564 33.5256 117.671 33.5066 117.779 33.5105V33.5093ZM126.622 38.4978C127.186 38.4822 127.747 38.581 128.271 38.7883C128.795 38.9955 129.272 39.3069 129.673 39.7036L129.129 40.4129C128.788 40.1053 128.401 39.8534 127.981 39.6663C127.558 39.4931 127.103 39.4084 126.645 39.4174C126.126 39.4049 125.612 39.5253 125.153 39.7673C124.693 40.0093 124.303 40.3647 124.02 40.7999C123.287 42.0624 122.949 43.5157 123.051 44.9721C122.948 46.3976 123.282 47.8205 124.009 49.0511C124.297 49.4758 124.687 49.8208 125.144 50.0542C125.601 50.2877 126.11 50.4019 126.622 50.3863C127.588 50.3725 128.515 50.0019 129.223 49.346L129.767 50.008C129.356 50.4245 128.866 50.7559 128.327 50.983C127.787 51.2102 127.208 51.3288 126.622 51.332C125.961 51.3574 125.303 51.223 124.705 50.9404C124.106 50.6577 123.584 50.235 123.184 49.7081C122.252 48.3148 121.807 46.6521 121.919 44.9796C121.817 43.2908 122.264 41.6142 123.195 40.2013C123.583 39.658 124.099 39.2185 124.696 38.9216C125.294 38.6248 125.956 38.4796 126.624 38.4991L126.622 38.4978ZM135.21 38.4978C135.844 38.4898 136.474 38.6022 137.066 38.8288C137.667 39.0744 138.223 39.4179 138.71 39.8454L138.167 40.5311C137.742 40.1763 137.268 39.8858 136.759 39.6688C136.281 39.4821 135.771 39.3895 135.258 39.3962C134.578 39.3656 133.91 39.5842 133.379 40.0109C133.141 40.2142 132.953 40.4688 132.828 40.7555C132.703 41.0422 132.645 41.3535 132.658 41.6659C132.647 41.9376 132.698 42.2082 132.805 42.4578C132.913 42.7074 133.076 42.9296 133.281 43.1081C133.938 43.5893 134.679 43.9423 135.467 44.1484C136.469 44.4095 137.399 44.8945 138.187 45.5669C138.465 45.8676 138.68 46.2217 138.818 46.6077C138.957 46.9937 139.015 47.4037 138.991 47.813C139.009 48.2935 138.919 48.772 138.729 49.2137C138.539 49.6554 138.253 50.0492 137.892 50.3664C137.112 51.0295 136.112 51.3755 135.089 51.3357C134.335 51.3513 133.586 51.2102 132.89 50.9213C132.244 50.6352 131.652 50.2395 131.14 49.7517L131.755 49.0897C132.21 49.5049 132.729 49.8444 133.292 50.0951C133.856 50.3192 134.459 50.4279 135.065 50.4149C135.807 50.4467 136.534 50.2069 137.111 49.7405C137.378 49.5035 137.588 49.2091 137.726 48.8794C137.863 48.5496 137.923 48.1931 137.903 47.8366C137.92 47.3963 137.831 46.9584 137.643 46.5599C137.433 46.1941 137.121 45.898 136.744 45.7088C136.153 45.4032 135.535 45.15 134.9 44.9522C133.958 44.7121 133.085 44.2592 132.346 43.6283C132.093 43.3699 131.895 43.0626 131.765 42.7252C131.635 42.3877 131.575 42.0273 131.589 41.6659C131.58 41.2348 131.668 40.8072 131.846 40.4144C132.023 40.0216 132.287 39.6737 132.617 39.3962C133.337 38.7861 134.259 38.4662 135.202 38.4991L135.21 38.4978ZM25.4425 57.0672C25.9022 57.0432 26.3618 57.116 26.7915 57.281C27.2212 57.446 27.6115 57.6994 27.9369 58.0249C28.2624 58.3503 28.5159 58.7405 28.6809 59.1702C28.8459 59.5998 28.9188 60.0593 28.8948 60.519C28.9124 61.3659 28.6273 62.1914 28.0908 62.8471C27.3596 63.6641 26.5055 64.3622 25.5595 64.9165L30.0771 69.6686C30.7142 68.1697 31.1975 66.61 31.5195 65.0135L32.5151 65.2736C32.1591 67.026 31.5623 68.7207 30.7417 70.3095L33.4585 73.1018L32.6533 73.7351L30.1704 71.1345C29.6235 71.9066 28.9279 72.5619 28.1244 73.0619C27.2932 73.5324 26.3487 73.7657 25.3939 73.7364C24.6147 73.7477 23.8449 73.5651 23.1538 73.205C22.4987 72.8603 21.9526 72.3397 21.577 71.7019C21.1668 70.9545 20.9678 70.1097 21.0011 69.2579C21.0344 68.4061 21.2989 67.5794 21.7662 66.8664C22.4099 66.028 23.1985 65.3116 24.0947 64.751C23.4511 64.1189 22.8839 63.4135 22.4046 62.6493C22.0692 62.0336 21.9018 61.3405 21.9192 60.6397C21.9001 60.1671 21.976 59.6955 22.1425 59.2528C22.3091 58.8102 22.5628 58.4054 22.8887 58.0626C23.2223 57.729 23.6215 57.4682 24.0611 57.2968C24.5007 57.1255 24.9711 57.0473 25.4425 57.0672V57.0672ZM25.4425 57.9382C25.1064 57.9225 24.771 57.9813 24.4604 58.1104C24.1497 58.2395 23.8714 58.4356 23.6454 58.6848C23.1897 59.221 22.9532 59.9093 22.9833 60.6123C22.9748 61.1729 23.1002 61.7275 23.3492 62.2299C23.7899 62.9723 24.318 63.6591 24.9223 64.2756C25.7582 63.8147 26.5098 63.2151 27.145 62.5024C27.5944 61.9569 27.8372 61.2705 27.8307 60.5638C27.855 60.2111 27.809 59.8571 27.6953 59.5224C27.5817 59.1877 27.4026 58.8789 27.1686 58.6139C26.9428 58.389 26.6728 58.2132 26.3758 58.0975C26.0787 57.9819 25.761 57.9289 25.4425 57.9419V57.9382ZM24.7095 65.3619C23.936 65.842 23.2648 66.47 22.7344 67.2098C22.2949 67.8753 22.068 68.6585 22.0835 69.4558C22.0639 69.9051 22.1378 70.3536 22.3006 70.7727C22.4635 71.1919 22.7116 71.5727 23.0293 71.891C23.3491 72.1984 23.7274 72.4384 24.1417 72.5968C24.556 72.7552 24.9979 72.8287 25.4412 72.8131C26.2456 72.837 27.0406 72.6352 27.7361 72.2307C28.4381 71.7747 29.0412 71.1823 29.5096 70.4886L24.7095 65.3619ZM53.0635 60.8972C53.4673 60.879 53.8696 60.9586 54.2361 61.1293C54.6025 61.3001 54.9222 61.5568 55.168 61.8778C55.7117 62.663 55.978 63.6071 55.9246 64.5606V73.4751H54.8842V64.7037C54.9349 63.9442 54.7577 63.1868 54.3752 62.5286C54.216 62.2921 53.9987 62.1006 53.7442 61.9722C53.4896 61.8439 53.2064 61.7831 52.9216 61.7957C51.7235 61.7957 50.6358 62.6862 49.6585 64.4673V73.4751H48.5944V64.7037C48.6459 63.9429 48.4686 63.1841 48.0854 62.5248C47.9261 62.2882 47.7086 62.0965 47.4538 61.9682C47.199 61.8398 46.9155 61.7791 46.6305 61.7919C45.4325 61.7919 44.3539 62.6825 43.3948 64.4635V73.4751H42.3307V61.1337H43.2529L43.3475 63.2851C43.7339 62.6022 44.2551 62.0048 44.8795 61.5294C45.4316 61.1141 46.104 60.89 46.7948 60.891C47.4575 60.8677 48.1028 61.1054 48.5919 61.553C49.0951 62.0517 49.4263 62.6976 49.5377 63.3971C49.9385 62.6904 50.4727 62.0684 51.1108 61.5655C51.6682 61.1299 52.356 60.8945 53.0635 60.8972V60.8972ZM68.0787 66.8079C68.0787 67.1397 68.0629 67.4628 68.0314 67.7772H60.4858C60.434 69.1244 60.8019 70.4545 61.5387 71.5837C61.8363 71.9717 62.222 72.2835 62.6639 72.4931C63.1057 72.7028 63.5911 72.8043 64.08 72.7894C64.6181 72.8009 65.153 72.7044 65.6531 72.5057C66.1735 72.2715 66.6559 71.9607 67.0843 71.5837L67.6282 72.2457C67.1367 72.7047 66.5734 73.0801 65.9605 73.3568C65.3591 73.6124 64.711 73.7396 64.0576 73.7302C63.3957 73.7554 62.7375 73.619 62.1402 73.3328C61.5428 73.0466 61.0241 72.6192 60.629 72.0876C59.71 70.7022 59.2699 69.0542 59.3757 67.3952C59.2781 65.7154 59.6944 64.0457 60.5692 62.6082C60.919 62.0681 61.4016 61.6269 61.9707 61.3266C62.5399 61.0264 63.1766 60.8773 63.8199 60.8935C64.4361 60.8609 65.0505 60.9859 65.6049 61.2568C66.1593 61.5277 66.6355 61.9354 66.9885 62.4415C67.7888 63.7516 68.1684 65.2755 68.0762 66.8079H68.0787ZM67.0146 66.4532C67.0847 65.2597 66.8141 64.0708 66.2343 63.0251C65.9792 62.6301 65.6235 62.3102 65.2037 62.0983C64.784 61.8864 64.3154 61.7901 63.8461 61.8193C63.3807 61.8111 62.9206 61.9192 62.5077 62.1339C62.0947 62.3486 61.742 62.6631 61.4815 63.0487C60.7834 64.2185 60.4377 65.5648 60.4858 66.9261H67.0121L67.0146 66.4532ZM75.3144 60.8972C75.8779 60.8816 76.4388 60.9805 76.9631 61.1877C77.4873 61.3949 77.9642 61.7063 78.3647 62.103L77.8208 62.8123C77.4799 62.5047 77.0927 62.2528 76.6734 62.0657C76.2498 61.8927 75.7954 61.808 75.338 61.8168C74.8189 61.8043 74.3052 61.9248 73.8458 62.1667C73.3864 62.4087 72.9965 62.7642 72.7133 63.1993C71.9799 64.4622 71.6422 65.916 71.7438 67.3728C71.6407 68.7981 71.9746 70.221 72.7009 71.4518C72.9886 71.8767 73.379 72.222 73.8359 72.4556C74.2928 72.6892 74.8014 72.8037 75.3144 72.7882C76.2801 72.7744 77.2066 72.4039 77.9154 71.7479L78.4593 72.4099C78.0478 72.8264 77.5583 73.1578 77.0186 73.385C76.479 73.6121 75.8999 73.7307 75.3144 73.7339C74.6519 73.7595 73.9931 73.6249 73.3939 73.3415C72.7946 73.0582 72.2725 72.6344 71.872 72.1063C70.9412 70.7125 70.4979 69.0499 70.6113 67.3778C70.5094 65.6897 70.9574 64.0141 71.8882 62.602C72.2753 62.0589 72.7901 61.6194 73.3871 61.3221C73.9841 61.0248 74.6451 60.8789 75.3119 60.8972H75.3144ZM86.0969 60.8972C86.5226 60.8727 86.9482 60.9475 87.34 61.1157C87.7319 61.284 88.0792 61.541 88.3545 61.8666C88.9244 62.6454 89.2048 63.5986 89.1473 64.5618V73.4751H88.0832V64.7037C88.0832 62.765 87.3659 61.7957 85.9314 61.7957C85.2104 61.794 84.5115 62.0449 83.9563 62.5049C83.2888 63.0685 82.7306 63.7502 82.3098 64.5158V73.4751H81.2458V56.0978L82.3098 55.956V63.3324C82.7457 62.6306 83.3117 62.0186 83.9775 61.5294C84.5992 61.1016 85.3399 60.8804 86.0944 60.8972H86.0969ZM100.306 71.0399C100.281 71.4837 100.353 71.9276 100.518 72.3402C100.669 72.6323 100.922 72.8592 101.228 72.9786L100.991 73.7351C100.543 73.6427 100.139 73.401 99.8452 73.0495C99.553 72.6245 99.3924 72.1229 99.3835 71.6073C99.0662 72.2556 98.5707 72.8 97.9551 73.1768C97.3395 73.5537 96.6292 73.7473 95.9075 73.7351C95.4384 73.7597 94.9694 73.6827 94.5327 73.5094C94.0961 73.3361 93.702 73.0706 93.3774 72.7309C92.7361 71.9882 92.4058 71.0269 92.4552 70.0469C92.4242 69.4974 92.5203 68.9481 92.7362 68.4418C92.952 67.9355 93.2817 67.4858 93.6997 67.1277C94.6895 66.3907 95.9077 66.0267 97.1396 66.0998H99.2354V64.6813C99.2977 63.9118 99.0841 63.1452 98.633 62.5186C98.3743 62.2657 98.0636 62.0723 97.7225 61.9517C97.3814 61.8312 97.0181 61.7864 96.658 61.8205C95.5971 61.8565 94.5533 62.0974 93.584 62.5298L93.2766 61.7023C94.3707 61.2073 95.5522 60.9341 96.7526 60.8985C99.1172 60.8985 100.299 62.1358 100.299 64.6104L100.306 71.0399ZM96.0258 72.8367C96.7403 72.8227 97.433 72.5879 98.0087 72.1646C98.5845 71.7413 99.0152 71.1502 99.2416 70.4725V66.9261H97.2504C94.8069 66.9261 93.5852 67.9585 93.5852 70.0233C93.5369 70.7735 93.7688 71.5149 94.2361 72.1038C94.4618 72.3505 94.7393 72.5442 95.0487 72.671C95.3582 72.7977 95.6918 72.8543 96.0258 72.8367ZM109.622 60.8972C110.049 60.8699 110.476 60.9421 110.87 61.1082C111.264 61.2743 111.614 61.5296 111.892 61.8541C112.458 62.6392 112.734 63.5962 112.673 64.5618V73.4751H111.608V64.7037C111.608 62.765 110.891 61.7957 109.457 61.7957C108.736 61.794 108.037 62.0449 107.482 62.5049C106.815 63.0685 106.259 63.7497 105.839 64.5146V73.4751H104.775V61.1337H105.697L105.792 63.3561C106.151 62.6407 106.696 62.035 107.37 61.6025C108.044 61.1699 108.822 60.9264 109.622 60.8972V60.8972ZM118.111 61.1337V73.4751H117.047V61.1337H118.111ZM117.544 55.9074C117.652 55.9021 117.76 55.9191 117.861 55.9573C117.962 55.9955 118.055 56.0541 118.132 56.1295C118.21 56.2049 118.271 56.2955 118.312 56.3955C118.353 56.4956 118.373 56.6031 118.371 56.7113C118.375 56.818 118.357 56.9243 118.318 57.0238C118.28 57.1233 118.221 57.2139 118.146 57.2899C118.066 57.3663 117.971 57.4257 117.868 57.4644C117.764 57.5031 117.654 57.5204 117.544 57.5151C117.436 57.5188 117.329 57.4996 117.229 57.4589C117.129 57.4181 117.039 57.3567 116.965 57.2787C116.821 57.125 116.74 56.9221 116.74 56.7113C116.74 56.5004 116.821 56.2975 116.965 56.1439C117.039 56.066 117.129 56.0049 117.229 55.9643C117.329 55.9238 117.436 55.9048 117.544 55.9087V55.9074ZM126.387 60.896C126.951 60.8804 127.512 60.9792 128.036 61.1865C128.56 61.3937 129.037 61.7051 129.438 62.1018L128.894 62.811C128.553 62.5035 128.166 62.2515 127.746 62.0644C127.322 61.8913 126.867 61.8066 126.41 61.8156C125.89 61.8031 125.377 61.9235 124.917 62.1655C124.458 62.4075 124.068 62.7629 123.785 63.198C123.052 64.4609 122.714 65.9147 122.815 67.3716C122.713 68.797 123.047 70.2199 123.774 71.4505C124.061 71.8754 124.452 72.2207 124.909 72.4544C125.366 72.688 125.874 72.8024 126.387 72.7869C127.353 72.7732 128.279 72.4026 128.988 71.7467L129.532 72.4087C129.121 72.8252 128.631 73.1565 128.091 73.3837C127.552 73.6109 126.973 73.7295 126.387 73.7326C125.725 73.7581 125.067 73.6236 124.468 73.3405C123.869 73.0574 123.347 72.634 122.946 72.1063C122.014 70.713 121.569 69.0503 121.682 67.3778C121.58 65.6897 122.028 64.0141 122.959 62.602C123.346 62.0582 123.862 61.6182 124.46 61.3209C125.058 61.0236 125.72 60.8781 126.387 60.8972V60.896ZM134.974 60.896C135.609 60.888 136.239 61.0003 136.831 61.227C137.432 61.4725 137.987 61.8161 138.475 62.2436L137.931 62.9293C137.507 62.5741 137.033 62.2831 136.524 62.0657C136.046 61.879 135.536 61.7865 135.023 61.7932C134.343 61.7625 133.674 61.9811 133.144 62.4079C132.906 62.6111 132.718 62.8657 132.593 63.1524C132.468 63.4391 132.41 63.7504 132.423 64.0629C132.412 64.3345 132.463 64.6051 132.57 64.8547C132.678 65.1043 132.84 65.3266 133.045 65.505C133.702 65.9863 134.444 66.3392 135.232 66.5453C136.234 66.8064 137.164 67.2914 137.951 67.9639C138.229 68.2638 138.444 68.6169 138.582 69.0017C138.72 69.3866 138.779 69.7955 138.755 70.2037C138.773 70.6842 138.684 71.1627 138.494 71.6044C138.304 72.0461 138.018 72.4399 137.656 72.7571C136.877 73.4202 135.876 73.7662 134.854 73.7264C134.1 73.742 133.351 73.6009 132.655 73.3121C132.008 73.0259 131.416 72.6302 130.905 72.1424L131.52 71.4804C131.975 71.8952 132.494 72.2342 133.057 72.4846C133.62 72.7086 134.223 72.8174 134.83 72.8044C135.571 72.8362 136.299 72.5964 136.876 72.1299C137.141 71.8943 137.35 71.6021 137.487 71.2749C137.623 70.9477 137.685 70.5939 137.666 70.2398C137.683 69.7995 137.594 69.3616 137.406 68.9631C137.197 68.5972 136.884 68.3012 136.508 68.1119C135.916 67.8063 135.299 67.5532 134.663 67.3554C133.722 67.1153 132.848 66.6623 132.11 66.0314C131.856 65.7731 131.659 65.4658 131.529 65.1283C131.398 64.7909 131.339 64.4304 131.353 64.0691C131.344 63.638 131.431 63.2103 131.609 62.8175C131.787 62.4247 132.051 62.0768 132.381 61.7994C133.101 61.1863 134.025 60.8645 134.971 60.8972L134.974 60.896Z" fill="white"/>
</svg>
