<?xml version="1.0" encoding="UTF-8" standalone="no"?><!-- Generator: Gravit.io --><svg xmlns="http://www.w3.org/2000/svg" xmlns:xlink="http://www.w3.org/1999/xlink" style="isolation:isolate" viewBox="0 0 136 87" width="136pt" height="87pt"><defs><clipPath id="_clipPath_dOTmGPGeBRyXACNiVrDK2LmVKyc0JaHo"><rect width="136" height="87"/></clipPath></defs><g clip-path="url(#_clipPath_dOTmGPGeBRyXACNiVrDK2LmVKyc0JaHo)"><mask id="_mask_DjJSNo7qFJYSTKuir0HE6hHjL61l9yTG" x="-200%" y="-200%" width="400%" height="400%"><rect x="-200%" y="-200%" width="400%" height="400%" style="fill:white;"/><line x1="86.652" y1="29.493" x2="86.652" y2="1" fill="black" stroke="none"/></mask><line x1="86.652" y1="29.493" x2="86.652" y2="1" mask="url(#_mask_DjJSNo7qFJYSTKuir0HE6hHjL61l9yTG)" vector-effect="non-scaling-stroke" stroke-width="4" stroke="rgb(255,255,255)" stroke-linejoin="miter" stroke-linecap="butt" stroke-miterlimit="4"/><line x1="1" y1="2.239" x2="87.893" y2="2.239"/><mask id="_mask_tA05b9vIKUUzqVPt9Wwz7XUzXdb9VESh" x="-200%" y="-200%" width="400%" height="400%"><rect x="-200%" y="-200%" width="400%" height="400%" style="fill:white;"/><line x1="1" y1="2.239" x2="87.893" y2="2.239" fill="black" stroke="none"/></mask><line x1="1" y1="2.239" x2="87.893" y2="2.239" mask="url(#_mask_tA05b9vIKUUzqVPt9Wwz7XUzXdb9VESh)" vector-effect="non-scaling-stroke" stroke-width="4" stroke="rgb(255,255,255)" stroke-linejoin="miter" stroke-linecap="butt" stroke-miterlimit="4"/><mask id="_mask_0U7UqnUsCMpuV962QB3KZeGKAqfMVwDm" x="-200%" y="-200%" width="400%" height="400%"><rect x="-200%" y="-200%" width="400%" height="400%" style="fill:white;"/><line x1="2.241" y1="1" x2="2.241" y2="84" fill="black" stroke="none"/></mask><line x1="2.241" y1="1" x2="2.241" y2="84" mask="url(#_mask_0U7UqnUsCMpuV962QB3KZeGKAqfMVwDm)" vector-effect="non-scaling-stroke" stroke-width="4" stroke="rgb(255,255,255)" stroke-linejoin="miter" stroke-linecap="butt" stroke-miterlimit="4"/><mask id="_mask_6cvcNJFzd0MH8BeOpmyS6io08TOWmQ3M" x="-200%" y="-200%" width="400%" height="400%"><rect x="-200%" y="-200%" width="400%" height="400%" style="fill:white;"/><line x1="29.551" y1="84" x2="1" y2="84" fill="black" stroke="none"/></mask><line x1="29.551" y1="84" x2="1" y2="84" mask="url(#_mask_6cvcNJFzd0MH8BeOpmyS6io08TOWmQ3M)" vector-effect="non-scaling-stroke" stroke-width="4" stroke="rgb(255,255,255)" stroke-linejoin="miter" stroke-linecap="butt" stroke-miterlimit="4"/><path d=" M 28.294 38.65 C 28.697 38.632 29.098 38.711 29.464 38.881 C 29.829 39.051 30.148 39.307 30.394 39.626 C 30.936 40.408 31.201 41.348 31.148 42.297 L 31.148 51.172 L 30.11 51.172 L 30.11 42.439 C 30.162 41.682 29.986 40.927 29.604 40.27 C 29.445 40.035 29.228 39.844 28.975 39.716 C 28.721 39.589 28.438 39.528 28.154 39.541 C 26.959 39.541 25.874 40.427 24.899 42.2 L 24.899 51.172 L 23.84 51.172 L 23.84 42.439 C 23.891 41.682 23.713 40.926 23.33 40.27 C 23.171 40.035 22.954 39.845 22.7 39.718 C 22.446 39.591 22.163 39.531 21.879 39.544 C 20.684 39.544 19.608 40.431 18.652 42.204 L 18.652 51.172 L 17.587 51.172 L 17.587 38.885 L 18.503 38.885 L 18.597 41.027 C 18.985 40.346 19.508 39.752 20.134 39.279 C 20.684 38.866 21.355 38.643 22.044 38.644 C 22.707 38.621 23.353 38.86 23.84 39.309 C 24.342 39.805 24.673 40.448 24.784 41.145 C 25.182 40.442 25.713 39.822 26.348 39.321 C 26.903 38.886 27.588 38.649 28.294 38.65 L 28.294 38.65 Z  M 42.28 48.747 C 42.255 49.189 42.328 49.631 42.493 50.042 C 42.643 50.333 42.895 50.559 43.2 50.677 L 42.964 51.431 C 42.517 51.339 42.113 51.098 41.82 50.748 C 41.529 50.325 41.369 49.825 41.361 49.312 C 41.044 49.958 40.55 50.5 39.936 50.875 C 39.322 51.25 38.613 51.443 37.894 51.431 C 37.426 51.455 36.958 51.378 36.522 51.206 C 36.087 51.033 35.694 50.769 35.37 50.431 C 34.73 49.691 34.401 48.734 34.45 47.759 C 34.419 47.212 34.515 46.665 34.73 46.161 C 34.946 45.657 35.275 45.209 35.691 44.853 C 36.679 44.119 37.894 43.756 39.123 43.829 L 41.219 43.829 L 41.219 42.417 C 41.281 41.651 41.068 40.888 40.618 40.264 C 40.36 40.012 40.05 39.82 39.71 39.7 C 39.37 39.58 39.008 39.535 38.648 39.569 C 37.59 39.605 36.549 39.845 35.582 40.275 L 35.276 39.451 C 36.365 38.959 37.541 38.686 38.736 38.65 C 41.095 38.65 42.274 39.882 42.274 42.345 L 42.28 48.747 Z  M 38.012 50.536 C 38.724 50.522 39.415 50.288 39.989 49.867 C 40.564 49.446 40.993 48.857 41.219 48.182 L 41.219 44.652 L 39.233 44.652 C 36.796 44.652 35.577 45.68 35.577 47.735 C 35.529 48.482 35.76 49.22 36.226 49.806 C 36.452 50.052 36.728 50.245 37.037 50.371 C 37.346 50.497 37.678 50.554 38.012 50.536 L 38.012 50.536 Z  M 51.646 50.676 C 50.988 51.172 50.183 51.437 49.359 51.429 C 48.997 51.449 48.636 51.393 48.299 51.263 C 47.961 51.133 47.655 50.933 47.401 50.676 C 46.896 50.08 46.643 49.313 46.693 48.534 L 46.693 39.775 L 44.875 39.775 L 44.875 38.885 L 46.691 38.885 L 46.691 35.896 L 47.752 35.772 L 47.752 38.885 L 50.677 38.885 L 50.529 39.775 L 47.752 39.775 L 47.752 48.483 C 47.752 49.817 48.318 50.484 49.45 50.484 C 50.072 50.477 50.679 50.289 51.196 49.943 L 51.646 50.676 Z  M 58.58 38.649 C 59.005 38.624 59.429 38.699 59.82 38.866 C 60.211 39.034 60.557 39.29 60.832 39.614 C 61.4 40.389 61.679 41.338 61.622 42.297 L 61.622 51.172 L 60.559 51.172 L 60.559 42.439 C 60.559 40.509 59.844 39.544 58.413 39.544 C 57.694 39.543 56.997 39.793 56.444 40.25 C 55.78 40.811 55.224 41.49 54.805 42.251 L 54.805 51.172 L 53.744 51.172 L 53.744 33.872 L 54.805 33.731 L 54.805 41.074 C 55.24 40.376 55.804 39.766 56.468 39.279 C 57.087 38.854 57.826 38.633 58.578 38.65 L 58.58 38.649 Z  M 73.742 44.534 C 73.742 44.864 73.726 45.186 73.695 45.499 L 66.17 45.499 C 66.118 46.84 66.485 48.165 67.22 49.289 C 67.517 49.675 67.902 49.985 68.342 50.194 C 68.783 50.403 69.267 50.504 69.755 50.489 C 70.292 50.5 70.825 50.404 71.324 50.207 C 71.842 49.973 72.322 49.664 72.749 49.289 L 73.291 49.948 C 72.801 50.405 72.239 50.778 71.628 51.054 C 71.028 51.308 70.382 51.435 69.73 51.426 C 69.07 51.451 68.413 51.315 67.818 51.03 C 67.222 50.745 66.704 50.32 66.31 49.79 C 65.394 48.411 64.955 46.77 65.06 45.119 C 64.963 43.446 65.379 41.783 66.252 40.352 C 66.601 39.814 67.082 39.375 67.65 39.077 C 68.218 38.778 68.853 38.63 69.494 38.646 C 70.109 38.614 70.722 38.738 71.275 39.008 C 71.828 39.277 72.303 39.683 72.655 40.187 C 73.454 41.491 73.833 43.008 73.742 44.534 L 73.742 44.534 Z  M 72.681 44.181 C 72.751 42.992 72.482 41.808 71.904 40.766 C 71.649 40.373 71.294 40.055 70.875 39.844 C 70.457 39.634 69.989 39.538 69.522 39.568 C 69.057 39.56 68.598 39.667 68.187 39.881 C 67.775 40.095 67.423 40.408 67.163 40.792 C 66.467 41.956 66.122 43.297 66.17 44.652 L 72.679 44.652 L 72.681 44.181 Z  M 87.893 38.65 C 88.296 38.632 88.697 38.711 89.063 38.881 C 89.428 39.051 89.747 39.307 89.992 39.626 C 90.535 40.408 90.8 41.348 90.747 42.297 L 90.747 51.172 L 89.709 51.172 L 89.709 42.439 C 89.761 41.682 89.585 40.927 89.204 40.27 C 89.045 40.035 88.829 39.844 88.575 39.716 C 88.321 39.589 88.038 39.528 87.754 39.541 C 86.559 39.541 85.474 40.427 84.499 42.2 L 84.499 51.172 L 83.437 51.172 L 83.437 42.439 C 83.488 41.682 83.311 40.926 82.928 40.27 C 82.769 40.035 82.552 39.844 82.298 39.716 C 82.045 39.589 81.762 39.528 81.478 39.541 C 80.283 39.541 79.207 40.427 78.251 42.2 L 78.251 51.172 L 77.189 51.172 L 77.189 38.885 L 78.109 38.885 L 78.203 41.027 C 78.589 40.347 79.11 39.752 79.734 39.279 C 80.285 38.866 80.955 38.643 81.644 38.644 C 82.305 38.62 82.949 38.857 83.437 39.303 C 83.939 39.799 84.269 40.442 84.38 41.139 C 84.78 40.435 85.313 39.816 85.949 39.315 C 86.504 38.882 87.189 38.648 87.893 38.65 L 87.893 38.65 Z  M 101.879 48.747 C 101.854 49.189 101.927 49.631 102.091 50.042 C 102.242 50.333 102.493 50.559 102.799 50.677 L 102.563 51.431 C 102.115 51.339 101.711 51.098 101.419 50.748 C 101.128 50.325 100.968 49.825 100.959 49.312 C 100.643 49.958 100.148 50.5 99.535 50.875 C 98.921 51.25 98.212 51.443 97.492 51.431 C 97.024 51.455 96.557 51.378 96.121 51.205 C 95.685 51.032 95.292 50.767 94.969 50.428 C 94.329 49.689 94 48.732 94.049 47.756 C 94.018 47.209 94.114 46.662 94.329 46.158 C 94.544 45.654 94.873 45.207 95.29 44.85 C 96.277 44.116 97.493 43.754 98.722 43.827 L 100.822 43.827 L 100.822 42.415 C 100.884 41.648 100.67 40.885 100.219 40.262 C 99.962 40.01 99.652 39.817 99.312 39.697 C 98.971 39.577 98.608 39.533 98.249 39.567 C 97.191 39.602 96.151 39.842 95.183 40.273 L 94.877 39.449 C 95.968 38.956 97.146 38.684 98.344 38.649 C 100.702 38.649 101.882 39.88 101.882 42.344 L 101.879 48.747 Z  M 97.61 50.536 C 98.323 50.522 99.014 50.288 99.588 49.867 C 100.162 49.446 100.592 48.857 100.818 48.182 L 100.818 44.652 L 98.832 44.652 C 96.395 44.652 95.176 45.68 95.176 47.735 C 95.128 48.482 95.358 49.22 95.824 49.806 C 96.049 50.052 96.326 50.246 96.635 50.372 C 96.945 50.498 97.278 50.554 97.612 50.536 L 97.61 50.536 Z  M 111.243 50.677 C 110.585 51.174 109.78 51.438 108.955 51.431 C 108.594 51.451 108.233 51.394 107.894 51.264 C 107.557 51.134 107.251 50.934 106.997 50.677 C 106.492 50.082 106.239 49.314 106.29 48.535 L 106.29 39.775 L 104.475 39.775 L 104.475 38.885 L 106.291 38.885 L 106.291 35.896 L 107.352 35.772 L 107.352 38.885 L 110.277 38.885 L 110.136 39.78 L 107.352 39.78 L 107.352 48.488 C 107.352 49.822 107.918 50.489 109.051 50.489 C 109.673 50.482 110.279 50.294 110.796 49.948 L 111.243 50.677 Z  M 114.403 38.885 L 114.403 51.172 L 113.34 51.172 L 113.34 38.885 L 114.403 38.885 Z  M 113.837 33.682 C 113.945 33.677 114.053 33.694 114.153 33.732 C 114.254 33.77 114.347 33.828 114.424 33.903 C 114.501 33.978 114.562 34.069 114.603 34.168 C 114.644 34.268 114.665 34.375 114.662 34.482 C 114.666 34.589 114.648 34.695 114.61 34.794 C 114.571 34.893 114.512 34.983 114.438 35.059 C 114.358 35.135 114.264 35.194 114.16 35.232 C 114.058 35.271 113.947 35.288 113.837 35.283 C 113.729 35.286 113.623 35.267 113.523 35.227 C 113.423 35.186 113.333 35.125 113.26 35.047 C 113.116 34.894 113.035 34.692 113.035 34.482 C 113.035 34.273 113.116 34.071 113.26 33.918 C 113.334 33.84 113.424 33.779 113.523 33.739 C 113.623 33.698 113.729 33.68 113.837 33.683 L 113.837 33.682 Z  M 122.657 38.649 C 123.22 38.633 123.78 38.731 124.302 38.938 C 124.825 39.144 125.301 39.454 125.701 39.849 L 125.158 40.555 C 124.818 40.249 124.432 39.998 124.013 39.812 C 123.591 39.639 123.137 39.555 122.68 39.564 C 122.163 39.552 121.65 39.671 121.192 39.912 C 120.733 40.153 120.344 40.507 120.062 40.94 C 119.331 42.197 118.994 43.644 119.096 45.094 C 118.993 46.513 119.326 47.93 120.051 49.155 C 120.338 49.578 120.727 49.921 121.183 50.154 C 121.639 50.386 122.147 50.5 122.657 50.484 C 123.621 50.47 124.546 50.101 125.252 49.448 L 125.794 50.108 C 125.384 50.522 124.896 50.852 124.358 51.078 C 123.819 51.304 123.242 51.422 122.657 51.426 C 121.998 51.451 121.342 51.317 120.745 51.036 C 120.148 50.754 119.627 50.334 119.228 49.809 C 118.299 48.422 117.855 46.767 117.967 45.102 C 117.865 43.42 118.311 41.751 119.239 40.344 C 119.626 39.804 120.141 39.366 120.736 39.07 C 121.333 38.775 121.993 38.63 122.659 38.65 L 122.657 38.649 Z  M 131.223 38.649 C 131.856 38.641 132.484 38.753 133.075 38.978 C 133.674 39.223 134.229 39.565 134.714 39.99 L 134.173 40.673 C 133.749 40.32 133.276 40.03 132.768 39.814 C 132.292 39.628 131.783 39.536 131.271 39.543 C 130.593 39.513 129.927 39.73 129.397 40.155 C 129.16 40.357 128.972 40.611 128.848 40.896 C 128.723 41.182 128.665 41.492 128.678 41.803 C 128.667 42.073 128.718 42.342 128.825 42.591 C 128.932 42.839 129.095 43.061 129.299 43.238 C 129.955 43.717 130.694 44.069 131.48 44.274 C 132.479 44.534 133.407 45.017 134.193 45.686 C 134.47 45.986 134.685 46.338 134.822 46.722 C 134.961 47.107 135.019 47.515 134.995 47.922 C 135.013 48.401 134.923 48.877 134.733 49.317 C 134.544 49.757 134.259 50.149 133.899 50.464 C 133.121 51.124 132.123 51.469 131.103 51.429 C 130.351 51.445 129.604 51.304 128.909 51.017 C 128.265 50.732 127.675 50.338 127.164 49.852 L 127.777 49.193 C 128.231 49.607 128.749 49.945 129.31 50.194 C 129.873 50.417 130.474 50.526 131.079 50.513 C 131.819 50.544 132.544 50.306 133.12 49.841 C 133.386 49.605 133.595 49.312 133.733 48.984 C 133.87 48.656 133.929 48.301 133.91 47.946 C 133.926 47.507 133.838 47.072 133.65 46.675 C 133.441 46.311 133.13 46.016 132.754 45.827 C 132.164 45.523 131.548 45.271 130.914 45.074 C 129.975 44.835 129.104 44.384 128.367 43.756 C 128.114 43.499 127.917 43.193 127.787 42.857 C 127.658 42.521 127.598 42.162 127.612 41.803 C 127.603 41.373 127.691 40.948 127.868 40.557 C 128.045 40.166 128.308 39.819 128.637 39.543 C 129.355 38.936 130.275 38.617 131.215 38.65 L 131.223 38.649 Z  M 21.738 57.135 C 22.196 57.111 22.655 57.184 23.083 57.348 C 23.512 57.512 23.901 57.765 24.226 58.089 C 24.55 58.413 24.803 58.801 24.968 59.229 C 25.132 59.657 25.205 60.114 25.181 60.572 C 25.199 61.415 24.914 62.237 24.379 62.889 C 23.65 63.703 22.798 64.398 21.854 64.95 L 26.36 69.681 C 26.996 68.188 27.478 66.636 27.799 65.046 L 28.792 65.305 C 28.437 67.05 27.842 68.737 27.023 70.319 L 29.733 73.099 L 28.93 73.729 L 26.453 71.14 C 25.908 71.909 25.214 72.561 24.413 73.059 C 23.584 73.527 22.642 73.759 21.689 73.73 C 20.912 73.742 20.144 73.56 19.455 73.201 C 18.801 72.858 18.257 72.34 17.882 71.705 C 17.473 70.961 17.274 70.12 17.308 69.272 C 17.341 68.424 17.605 67.601 18.071 66.891 C 18.713 66.056 19.499 65.343 20.393 64.785 C 19.751 64.156 19.186 63.453 18.708 62.693 C 18.373 62.08 18.206 61.39 18.223 60.692 C 18.204 60.221 18.28 59.752 18.446 59.311 C 18.612 58.871 18.865 58.468 19.19 58.126 C 19.523 57.794 19.921 57.535 20.36 57.364 C 20.798 57.193 21.267 57.116 21.738 57.135 L 21.738 57.135 Z  M 21.738 58.002 C 21.402 57.987 21.068 58.045 20.758 58.174 C 20.448 58.302 20.171 58.498 19.945 58.746 C 19.491 59.28 19.255 59.965 19.285 60.665 C 19.276 61.223 19.401 61.775 19.65 62.275 C 20.089 63.014 20.616 63.698 21.219 64.312 C 22.053 63.853 22.802 63.256 23.436 62.546 C 23.884 62.003 24.126 61.32 24.12 60.616 C 24.144 60.265 24.098 59.913 23.985 59.58 C 23.871 59.246 23.693 58.939 23.459 58.675 C 23.234 58.451 22.965 58.276 22.669 58.161 C 22.372 58.046 22.055 57.993 21.738 58.006 L 21.738 58.002 Z  M 21.007 65.393 C 20.235 65.871 19.566 66.496 19.037 67.233 C 18.598 67.895 18.372 68.675 18.387 69.469 C 18.368 69.916 18.441 70.363 18.604 70.78 C 18.766 71.197 19.014 71.576 19.331 71.893 C 19.65 72.199 20.027 72.438 20.44 72.596 C 20.853 72.753 21.294 72.827 21.736 72.811 C 22.539 72.835 23.332 72.634 24.025 72.231 C 24.726 71.777 25.327 71.188 25.794 70.497 L 21.007 65.393 Z  M 49.288 60.948 C 49.691 60.93 50.092 61.009 50.457 61.179 C 50.823 61.349 51.142 61.605 51.387 61.924 C 51.929 62.706 52.195 63.646 52.142 64.595 L 52.142 73.47 L 51.104 73.47 L 51.104 64.738 C 51.154 63.982 50.978 63.228 50.596 62.572 C 50.437 62.337 50.221 62.146 49.967 62.018 C 49.713 61.891 49.43 61.83 49.146 61.843 C 47.951 61.843 46.866 62.729 45.892 64.502 L 45.892 73.47 L 44.83 73.47 L 44.83 64.738 C 44.882 63.98 44.705 63.225 44.322 62.569 C 44.164 62.333 43.947 62.142 43.692 62.014 C 43.438 61.887 43.156 61.826 42.871 61.839 C 41.676 61.839 40.601 62.726 39.644 64.499 L 39.644 73.47 L 38.583 73.47 L 38.583 61.184 L 39.502 61.184 L 39.597 63.326 C 39.982 62.646 40.502 62.051 41.125 61.578 C 41.675 61.164 42.346 60.941 43.035 60.942 C 43.696 60.919 44.34 61.156 44.828 61.601 C 45.33 62.098 45.66 62.741 45.771 63.437 C 46.171 62.733 46.704 62.114 47.34 61.614 C 47.896 61.18 48.582 60.946 49.288 60.948 L 49.288 60.948 Z  M 64.264 66.833 C 64.264 67.163 64.249 67.485 64.217 67.798 L 56.691 67.798 C 56.639 69.139 57.006 70.463 57.741 71.587 C 58.038 71.973 58.423 72.284 58.864 72.493 C 59.304 72.701 59.788 72.802 60.276 72.788 C 60.813 72.799 61.346 72.703 61.845 72.505 C 62.364 72.272 62.845 71.963 63.273 71.587 L 63.815 72.246 C 63.325 72.703 62.763 73.077 62.152 73.352 C 61.552 73.607 60.905 73.734 60.254 73.724 C 59.593 73.749 58.937 73.613 58.341 73.329 C 57.745 73.044 57.228 72.618 56.834 72.089 C 55.917 70.71 55.478 69.069 55.584 67.417 C 55.486 65.745 55.902 64.083 56.774 62.652 C 57.123 62.114 57.604 61.675 58.172 61.376 C 58.74 61.077 59.375 60.928 60.017 60.945 C 60.631 60.912 61.244 61.037 61.797 61.306 C 62.35 61.576 62.825 61.982 63.177 62.486 C 63.975 63.79 64.354 65.307 64.262 66.833 L 64.264 66.833 Z  M 63.203 66.48 C 63.273 65.291 63.003 64.108 62.425 63.067 C 62.17 62.673 61.816 62.355 61.397 62.144 C 60.978 61.933 60.511 61.837 60.043 61.866 C 59.579 61.858 59.12 61.966 58.708 62.179 C 58.296 62.393 57.944 62.706 57.684 63.09 C 56.988 64.255 56.643 65.595 56.691 66.95 L 63.201 66.95 L 63.203 66.48 Z  M 71.482 60.948 C 72.044 60.933 72.603 61.031 73.126 61.237 C 73.649 61.444 74.125 61.754 74.524 62.149 L 73.982 62.855 C 73.642 62.549 73.255 62.298 72.837 62.112 C 72.415 61.939 71.961 61.855 71.505 61.864 C 70.987 61.851 70.475 61.971 70.017 62.212 C 69.559 62.453 69.17 62.807 68.887 63.24 C 68.156 64.497 67.819 65.945 67.92 67.395 C 67.817 68.814 68.15 70.231 68.875 71.456 C 69.162 71.879 69.551 72.223 70.007 72.455 C 70.463 72.688 70.97 72.802 71.482 72.786 C 72.445 72.773 73.369 72.404 74.076 71.751 L 74.618 72.41 C 74.208 72.824 73.72 73.154 73.181 73.38 C 72.643 73.607 72.066 73.725 71.482 73.728 C 70.821 73.753 70.164 73.619 69.566 73.337 C 68.968 73.055 68.447 72.633 68.048 72.107 C 67.12 70.72 66.677 69.065 66.791 67.4 C 66.689 65.719 67.136 64.051 68.064 62.645 C 68.45 62.105 68.964 61.667 69.559 61.371 C 70.155 61.075 70.814 60.93 71.479 60.948 L 71.482 60.948 Z  M 82.236 60.948 C 82.661 60.924 83.086 60.998 83.476 61.166 C 83.867 61.333 84.214 61.589 84.488 61.913 C 85.057 62.689 85.336 63.638 85.279 64.597 L 85.279 73.47 L 84.218 73.47 L 84.218 64.738 C 84.218 62.808 83.502 61.843 82.071 61.843 C 81.352 61.841 80.655 62.091 80.101 62.549 C 79.436 63.11 78.879 63.789 78.459 64.551 L 78.459 73.47 L 77.398 73.47 L 77.398 56.17 L 78.459 56.029 L 78.459 63.373 C 78.894 62.674 79.458 62.065 80.122 61.578 C 80.743 61.152 81.481 60.932 82.234 60.948 L 82.236 60.948 Z  M 96.409 71.046 C 96.384 71.488 96.456 71.93 96.62 72.34 C 96.771 72.631 97.023 72.857 97.329 72.976 L 97.092 73.729 C 96.645 73.637 96.242 73.396 95.949 73.046 C 95.658 72.623 95.498 72.124 95.489 71.611 C 95.172 72.256 94.678 72.798 94.064 73.173 C 93.45 73.548 92.742 73.741 92.022 73.729 C 91.554 73.754 91.086 73.677 90.651 73.504 C 90.215 73.332 89.822 73.067 89.498 72.729 C 88.859 71.99 88.529 71.033 88.578 70.057 C 88.547 69.51 88.643 68.963 88.859 68.459 C 89.074 67.955 89.403 67.508 89.82 67.151 C 90.807 66.417 92.022 66.055 93.251 66.128 L 95.341 66.128 L 95.341 64.716 C 95.403 63.949 95.19 63.186 94.74 62.562 C 94.482 62.311 94.172 62.118 93.832 61.998 C 93.492 61.878 93.13 61.834 92.77 61.867 C 91.712 61.903 90.671 62.143 89.704 62.574 L 89.398 61.75 C 90.489 61.257 91.667 60.985 92.865 60.95 C 95.223 60.95 96.402 62.181 96.402 64.645 L 96.409 71.046 Z  M 92.14 72.835 C 92.852 72.821 93.543 72.587 94.118 72.166 C 94.692 71.744 95.122 71.156 95.347 70.481 L 95.347 66.95 L 93.361 66.95 C 90.924 66.95 89.705 67.978 89.705 70.034 C 89.657 70.781 89.889 71.519 90.355 72.105 C 90.58 72.351 90.857 72.543 91.165 72.67 C 91.474 72.796 91.807 72.852 92.14 72.835 Z  M 105.701 60.948 C 106.127 60.921 106.553 60.993 106.946 61.158 C 107.339 61.324 107.688 61.578 107.965 61.901 C 108.53 62.683 108.805 63.635 108.744 64.597 L 108.744 73.47 L 107.682 73.47 L 107.682 64.738 C 107.682 62.808 106.967 61.843 105.537 61.843 C 104.817 61.841 104.12 62.091 103.567 62.549 C 102.901 63.11 102.347 63.788 101.928 64.55 L 101.928 73.47 L 100.867 73.47 L 100.867 61.184 L 101.786 61.184 L 101.881 63.396 C 102.239 62.684 102.783 62.081 103.455 61.65 C 104.127 61.22 104.903 60.977 105.701 60.948 L 105.701 60.948 Z  M 114.168 61.184 L 114.168 73.47 L 113.107 73.47 L 113.107 61.184 L 114.168 61.184 Z  M 113.603 55.981 C 113.711 55.975 113.818 55.992 113.919 56.03 C 114.02 56.068 114.112 56.127 114.189 56.202 C 114.267 56.277 114.328 56.367 114.369 56.467 C 114.41 56.566 114.43 56.673 114.428 56.781 C 114.432 56.887 114.414 56.993 114.375 57.092 C 114.337 57.191 114.278 57.281 114.203 57.357 C 114.123 57.433 114.029 57.492 113.926 57.531 C 113.822 57.569 113.713 57.586 113.603 57.581 C 113.495 57.585 113.388 57.566 113.289 57.525 C 113.189 57.485 113.099 57.424 113.025 57.346 C 112.882 57.193 112.801 56.991 112.801 56.781 C 112.801 56.571 112.882 56.369 113.025 56.216 C 113.099 56.139 113.189 56.078 113.289 56.037 C 113.388 55.997 113.495 55.978 113.603 55.982 L 113.603 55.981 Z  M 122.423 60.947 C 122.986 60.932 123.545 61.03 124.068 61.236 C 124.591 61.443 125.066 61.753 125.466 62.148 L 124.924 62.854 C 124.584 62.547 124.198 62.297 123.779 62.11 C 123.356 61.938 122.902 61.854 122.446 61.863 C 121.927 61.85 121.416 61.97 120.957 62.211 C 120.499 62.452 120.11 62.806 119.828 63.239 C 119.097 64.496 118.76 65.943 118.86 67.394 C 118.759 68.813 119.092 70.229 119.817 71.455 C 120.103 71.878 120.493 72.221 120.949 72.454 C 121.405 72.687 121.911 72.8 122.423 72.785 C 123.387 72.771 124.31 72.402 125.017 71.749 L 125.56 72.409 C 125.15 72.823 124.661 73.153 124.123 73.379 C 123.585 73.605 123.008 73.723 122.423 73.727 C 121.763 73.752 121.106 73.618 120.509 73.336 C 119.912 73.054 119.391 72.633 118.991 72.107 C 118.061 70.72 117.617 69.065 117.73 67.4 C 117.628 65.719 118.075 64.051 119.004 62.645 C 119.39 62.104 119.905 61.666 120.501 61.37 C 121.098 61.074 121.758 60.929 122.423 60.948 L 122.423 60.947 Z  M 130.988 60.947 C 131.621 60.939 132.25 61.051 132.84 61.277 C 133.44 61.521 133.993 61.863 134.48 62.289 L 133.937 62.971 C 133.515 62.618 133.042 62.328 132.534 62.112 C 132.057 61.926 131.549 61.834 131.037 61.84 C 130.359 61.81 129.691 62.027 129.163 62.452 C 128.925 62.655 128.738 62.908 128.613 63.193 C 128.488 63.479 128.431 63.789 128.444 64.1 C 128.433 64.37 128.483 64.64 128.59 64.888 C 128.698 65.137 128.86 65.358 129.064 65.536 C 129.719 66.015 130.459 66.366 131.245 66.571 C 132.245 66.831 133.172 67.314 133.957 67.984 C 134.235 68.282 134.449 68.634 134.587 69.017 C 134.724 69.4 134.783 69.807 134.759 70.213 C 134.777 70.692 134.689 71.168 134.499 71.608 C 134.31 72.048 134.024 72.44 133.663 72.755 C 132.886 73.416 131.888 73.76 130.868 73.72 C 130.116 73.736 129.369 73.595 128.675 73.308 C 128.03 73.023 127.439 72.629 126.929 72.143 L 127.543 71.484 C 127.997 71.897 128.514 72.235 129.076 72.484 C 129.638 72.707 130.239 72.815 130.844 72.802 C 131.584 72.834 132.31 72.595 132.885 72.131 C 133.149 71.896 133.358 71.606 133.495 71.28 C 133.63 70.954 133.692 70.602 133.673 70.249 C 133.69 69.811 133.601 69.375 133.414 68.978 C 133.205 68.614 132.893 68.319 132.518 68.131 C 131.928 67.827 131.312 67.575 130.678 67.378 C 129.739 67.139 128.868 66.688 128.131 66.06 C 127.878 65.802 127.682 65.497 127.552 65.161 C 127.421 64.825 127.362 64.466 127.376 64.106 C 127.367 63.677 127.454 63.251 127.632 62.86 C 127.809 62.469 128.073 62.123 128.402 61.846 C 129.12 61.236 130.041 60.916 130.985 60.948 L 130.988 60.947 Z " fill="rgb(255,255,255)"/></g></svg>