<svg width="331" height="239" viewBox="0 0 331 239" fill="none" xmlns="http://www.w3.org/2000/svg">
<g clip-path="url(#clip0_140_4)">
<path d="M83.4768 136.241C83.2957 136.382 83.0543 136.764 82.9336 137.066C82.7928 137.448 82.7324 153.361 82.7324 187.621C82.7324 231.094 82.7727 237.692 83.0342 238.175C83.3561 238.839 83.698 239 84.6436 239C85.2471 239 86.7156 237.813 98.3635 227.734C105.525 221.538 111.44 216.469 111.5 216.469C111.56 216.469 117.475 221.538 124.637 227.734C136.284 237.813 137.753 239 138.356 239C139.302 239 139.644 238.839 139.966 238.175C140.227 237.692 140.268 231.114 140.268 187.641C140.268 151.671 140.207 137.489 140.046 137.026C139.926 136.684 139.664 136.302 139.463 136.201C138.859 135.879 83.8992 135.94 83.4768 136.241Z" fill="#38564D"/>
</g>
<path d="M280.923 40H164.077C136.42 40 114 58.804 114 82V140C114 163.196 136.42 182 164.077 182H280.923C308.58 182 331 163.196 331 140V82C331 58.804 308.58 40 280.923 40Z" fill="#93E0BB"/>
<g filter="url(#filter0_d_140_4)">
<path d="M180 40H82C58.804 40 40 58.804 40 82V140C40 163.196 58.804 182 82 182H180C203.196 182 222 163.196 222 140V82C222 58.804 203.196 40 180 40Z" fill="#54B686"/>
</g>
<path d="M148.5 100.5V77.5" stroke="white" stroke-width="2"/>
<path d="M79.5 78.5H149.5" stroke="white" stroke-width="2"/>
<path d="M80.5 77.5V144.5" stroke="white" stroke-width="2"/>
<path d="M102.5 144.5H79.5" stroke="white" stroke-width="2"/>
<path d="M101.488 107.892C101.813 107.877 102.136 107.941 102.43 108.079C102.725 108.216 102.982 108.422 103.179 108.68C103.616 109.311 103.83 110.07 103.787 110.836V118H102.951V110.951C102.993 110.34 102.851 109.73 102.543 109.2C102.415 109.01 102.24 108.856 102.036 108.753C101.831 108.65 101.604 108.601 101.375 108.611C100.412 108.611 99.5383 109.327 98.753 110.758V118H97.9V110.951C97.9408 110.339 97.7976 109.73 97.489 109.2C97.3606 109.01 97.1857 108.857 96.981 108.754C96.7763 108.652 96.5487 108.603 96.32 108.614C95.3573 108.614 94.4907 109.33 93.72 110.761V118H92.862V108.082H93.6L93.676 109.811C93.9886 109.261 94.4098 108.781 94.914 108.4C95.3576 108.066 95.8979 107.886 96.453 107.887C96.9872 107.869 97.507 108.062 97.9 108.424C98.3043 108.825 98.5705 109.344 98.66 109.906C98.9808 109.338 99.4087 108.839 99.92 108.434C100.367 108.082 100.919 107.891 101.488 107.892ZM112.755 116.043C112.735 116.4 112.793 116.756 112.926 117.088C113.047 117.323 113.25 117.505 113.496 117.601L113.306 118.209C112.945 118.135 112.62 117.941 112.384 117.658C112.15 117.316 112.021 116.913 112.014 116.499C111.759 117.02 111.361 117.457 110.866 117.76C110.372 118.063 109.801 118.219 109.221 118.209C108.844 118.229 108.467 118.167 108.116 118.028C107.765 117.888 107.449 117.675 107.188 117.402C106.673 116.805 106.407 116.033 106.447 115.245C106.422 114.803 106.499 114.362 106.673 113.955C106.846 113.548 107.111 113.187 107.447 112.899C108.242 112.307 109.221 112.014 110.211 112.073H111.9V110.933C111.95 110.315 111.778 109.699 111.416 109.195C111.208 108.992 110.958 108.836 110.684 108.739C110.41 108.643 110.118 108.607 109.829 108.634C108.977 108.663 108.138 108.856 107.359 109.204L107.112 108.539C107.99 108.141 108.937 107.922 109.9 107.892C111.8 107.892 112.75 108.886 112.75 110.875L112.755 116.043ZM109.316 117.487C109.89 117.476 110.447 117.287 110.909 116.947C111.372 116.607 111.718 116.132 111.9 115.587V112.737H110.3C108.337 112.737 107.355 113.567 107.355 115.226C107.316 115.829 107.503 116.425 107.878 116.898C108.059 117.096 108.282 117.252 108.531 117.354C108.78 117.456 109.048 117.501 109.316 117.487ZM120.3 117.6C119.77 118.001 119.122 118.214 118.457 118.208C118.166 118.224 117.875 118.178 117.603 118.074C117.331 117.969 117.085 117.807 116.88 117.6C116.473 117.119 116.269 116.499 116.31 115.871V108.8H114.845V108.082H116.308V105.669L117.163 105.569V108.082H119.519L119.4 108.8H117.163V115.83C117.163 116.907 117.619 117.445 118.531 117.445C119.032 117.439 119.521 117.287 119.937 117.008L120.3 117.6ZM125.886 107.891C126.228 107.871 126.57 107.931 126.885 108.067C127.2 108.202 127.479 108.408 127.7 108.67C128.158 109.296 128.382 110.062 128.336 110.836V118H127.48V110.951C127.48 109.393 126.904 108.614 125.751 108.614C125.172 108.613 124.611 108.815 124.165 109.184C123.63 109.637 123.182 110.184 122.845 110.799V118H121.99V104.035L122.845 103.921V109.849C123.195 109.285 123.649 108.793 124.184 108.4C124.683 108.056 125.278 107.879 125.884 107.892L125.886 107.891ZM138.1 112.642C138.1 112.909 138.087 113.168 138.062 113.421H132C131.958 114.504 132.254 115.573 132.846 116.48C133.085 116.792 133.395 117.042 133.75 117.211C134.105 117.379 134.495 117.461 134.888 117.449C135.32 117.458 135.75 117.381 136.152 117.221C136.569 117.033 136.956 116.783 137.3 116.48L137.737 117.012C137.342 117.381 136.889 117.683 136.397 117.905C135.914 118.11 135.393 118.213 134.868 118.205C134.336 118.225 133.807 118.116 133.327 117.886C132.847 117.656 132.43 117.312 132.113 116.885C131.375 115.772 131.021 114.447 131.106 113.114C131.028 111.764 131.363 110.421 132.066 109.266C132.347 108.832 132.735 108.478 133.192 108.237C133.65 107.996 134.161 107.876 134.678 107.889C135.173 107.863 135.667 107.963 136.112 108.181C136.558 108.399 136.94 108.726 137.224 109.133C137.868 110.186 138.173 111.41 138.1 112.642ZM137.245 112.357C137.302 111.397 137.085 110.441 136.619 109.6C136.414 109.283 136.128 109.026 135.791 108.856C135.453 108.686 135.077 108.609 134.7 108.633C134.326 108.626 133.956 108.713 133.625 108.886C133.293 109.058 133.009 109.311 132.8 109.621C132.239 110.561 131.961 111.643 132 112.737H137.244L137.245 112.357ZM149.5 107.892C149.825 107.877 150.148 107.941 150.442 108.079C150.737 108.216 150.994 108.422 151.191 108.68C151.628 109.311 151.842 110.07 151.799 110.836V118H150.963V110.951C151.005 110.34 150.863 109.73 150.556 109.2C150.428 109.01 150.253 108.856 150.049 108.753C149.844 108.65 149.617 108.601 149.388 108.611C148.425 108.611 147.551 109.327 146.766 110.758V118H145.91V110.951C145.951 110.339 145.808 109.73 145.5 109.2C145.372 109.01 145.197 108.856 144.993 108.753C144.788 108.65 144.561 108.601 144.332 108.611C143.369 108.611 142.503 109.327 141.732 110.758V118H140.877V108.082H141.618L141.694 109.811C142.005 109.262 142.425 108.782 142.927 108.4C143.371 108.066 143.911 107.886 144.466 107.887C144.998 107.868 145.517 108.059 145.91 108.419C146.314 108.82 146.58 109.339 146.67 109.901C146.992 109.333 147.421 108.833 147.934 108.429C148.381 108.08 148.933 107.89 149.5 107.892ZM160.767 116.043C160.747 116.4 160.805 116.756 160.938 117.088C161.059 117.323 161.262 117.505 161.508 117.601L161.318 118.209C160.957 118.135 160.632 117.941 160.396 117.658C160.162 117.316 160.033 116.913 160.026 116.499C159.771 117.02 159.373 117.457 158.878 117.76C158.384 118.063 157.813 118.219 157.233 118.209C156.856 118.229 156.479 118.166 156.128 118.027C155.777 117.887 155.461 117.673 155.2 117.4C154.685 116.803 154.419 116.031 154.459 115.243C154.434 114.801 154.511 114.36 154.685 113.953C154.858 113.546 155.123 113.185 155.459 112.897C156.255 112.305 157.234 112.012 158.224 112.071H159.915V110.931C159.965 110.312 159.793 109.696 159.43 109.193C159.222 108.99 158.972 108.834 158.698 108.737C158.424 108.641 158.132 108.605 157.843 108.632C156.991 108.661 156.152 108.854 155.373 109.202L155.126 108.537C156.005 108.139 156.954 107.92 157.919 107.891C159.819 107.891 160.769 108.885 160.769 110.874L160.767 116.043ZM157.328 117.487C157.902 117.476 158.459 117.287 158.921 116.947C159.384 116.607 159.73 116.132 159.912 115.587V112.737H158.312C156.349 112.737 155.367 113.567 155.367 115.226C155.328 115.829 155.514 116.425 155.889 116.898C156.071 117.097 156.294 117.252 156.543 117.354C156.792 117.456 157.06 117.501 157.329 117.487H157.328ZM168.31 117.601C167.78 118.002 167.132 118.215 166.467 118.209C166.176 118.225 165.885 118.179 165.613 118.075C165.341 117.97 165.095 117.808 164.89 117.601C164.483 117.12 164.279 116.5 164.32 115.872V108.8H162.858V108.082H164.321V105.669L165.176 105.569V108.082H167.532L167.418 108.804H165.176V115.834C165.176 116.911 165.632 117.449 166.544 117.449C167.045 117.443 167.534 117.291 167.95 117.012L168.31 117.601ZM170.856 108.082V118H170V108.082H170.856ZM170.4 103.882C170.487 103.878 170.574 103.891 170.655 103.922C170.736 103.953 170.811 104 170.873 104.06C170.935 104.121 170.984 104.194 171.018 104.274C171.051 104.355 171.067 104.441 171.065 104.528C171.068 104.614 171.054 104.699 171.022 104.779C170.991 104.859 170.944 104.932 170.884 104.993C170.82 105.054 170.744 105.102 170.661 105.133C170.577 105.164 170.489 105.178 170.4 105.174C170.313 105.177 170.227 105.162 170.147 105.129C170.067 105.096 169.995 105.047 169.935 104.984C169.819 104.86 169.754 104.697 169.754 104.528C169.754 104.359 169.819 104.195 169.935 104.072C169.995 104.009 170.067 103.96 170.147 103.928C170.227 103.895 170.314 103.88 170.4 103.883V103.882ZM177.506 107.891C177.959 107.878 178.409 107.958 178.831 108.124C179.252 108.291 179.635 108.541 179.957 108.86L179.52 109.43C179.246 109.183 178.935 108.98 178.598 108.83C178.257 108.691 177.892 108.623 177.524 108.63C177.107 108.62 176.694 108.717 176.325 108.911C175.956 109.106 175.643 109.391 175.415 109.741C174.826 110.756 174.555 111.924 174.636 113.094C174.553 114.24 174.822 115.383 175.406 116.372C175.637 116.713 175.951 116.991 176.318 117.178C176.685 117.366 177.094 117.458 177.506 117.445C178.282 117.434 179.026 117.136 179.596 116.609L180.033 117.141C179.702 117.476 179.309 117.742 178.875 117.925C178.442 118.107 177.976 118.202 177.506 118.205C176.974 118.225 176.446 118.117 175.965 117.89C175.484 117.663 175.065 117.323 174.743 116.9C173.994 115.78 173.637 114.444 173.727 113.1C173.644 111.743 174.004 110.395 174.752 109.26C175.064 108.823 175.478 108.47 175.958 108.232C176.439 107.993 176.971 107.876 177.507 107.892L177.506 107.891ZM184.406 107.891C184.916 107.885 185.422 107.975 185.898 108.157C186.381 108.354 186.827 108.63 187.219 108.974L186.782 109.525C186.441 109.24 186.06 109.006 185.651 108.832C185.267 108.682 184.857 108.608 184.445 108.613C183.898 108.588 183.361 108.764 182.935 109.107C182.744 109.27 182.593 109.475 182.492 109.705C182.392 109.936 182.345 110.186 182.356 110.437C182.347 110.655 182.388 110.873 182.474 111.073C182.561 111.274 182.691 111.453 182.856 111.596C183.384 111.983 183.98 112.266 184.613 112.432C185.418 112.642 186.165 113.032 186.798 113.572C187.022 113.814 187.195 114.098 187.306 114.408C187.417 114.719 187.464 115.048 187.444 115.377C187.459 115.763 187.387 116.148 187.234 116.503C187.081 116.858 186.851 117.174 186.561 117.429C185.935 117.962 185.131 118.24 184.309 118.208C183.703 118.221 183.102 118.107 182.542 117.875C182.023 117.645 181.547 117.327 181.136 116.935L181.63 116.403C181.996 116.737 182.413 117.01 182.865 117.211C183.318 117.391 183.803 117.478 184.29 117.468C184.886 117.494 185.47 117.301 185.934 116.926C186.149 116.736 186.317 116.499 186.428 116.234C186.538 115.969 186.586 115.682 186.57 115.396C186.584 115.042 186.512 114.69 186.361 114.37C186.193 114.076 185.942 113.838 185.639 113.686C185.164 113.44 184.668 113.237 184.157 113.078C183.401 112.885 182.699 112.521 182.105 112.014C181.902 111.806 181.743 111.559 181.638 111.288C181.534 111.017 181.486 110.727 181.497 110.437C181.49 110.091 181.56 109.747 181.703 109.431C181.846 109.116 182.058 108.836 182.323 108.613C182.902 108.123 183.642 107.866 184.4 107.892L184.406 107.891ZM96.206 122.814C96.5754 122.795 96.9447 122.853 97.2899 122.986C97.6352 123.118 97.9488 123.322 98.2103 123.584C98.4719 123.845 98.6755 124.159 98.8081 124.504C98.9407 124.849 98.9993 125.219 98.98 125.588C98.9941 126.269 98.7651 126.932 98.334 127.459C97.7464 128.116 97.0602 128.677 96.3 129.122L99.93 132.941C100.442 131.736 100.83 130.483 101.089 129.2L101.889 129.409C101.603 130.817 101.123 132.179 100.464 133.456L102.647 135.7L102 136.209L100.005 134.119C99.5655 134.74 99.0066 135.266 98.361 135.668C97.6931 136.046 96.9342 136.234 96.167 136.21C95.5409 136.219 94.9223 136.072 94.367 135.783C93.8406 135.506 93.4018 135.088 93.1 134.575C92.7704 133.974 92.6105 133.295 92.6373 132.611C92.664 131.926 92.8765 131.262 93.252 130.689C93.7693 130.015 94.4029 129.44 95.123 128.989C94.6059 128.481 94.1501 127.914 93.765 127.3C93.4955 126.805 93.361 126.248 93.375 125.685C93.3596 125.305 93.4206 124.926 93.5544 124.57C93.6882 124.215 93.8921 123.889 94.154 123.614C94.422 123.346 94.7428 123.136 95.096 122.999C95.4492 122.861 95.8272 122.798 96.206 122.814ZM96.206 123.514C95.936 123.501 95.6665 123.549 95.4169 123.652C95.1672 123.756 94.9436 123.914 94.762 124.114C94.3958 124.545 94.2058 125.098 94.23 125.663C94.2231 126.114 94.3239 126.559 94.524 126.963C94.8781 127.56 95.3025 128.111 95.788 128.607C96.4597 128.237 97.0636 127.755 97.574 127.182C97.9351 126.744 98.1302 126.192 98.125 125.624C98.1445 125.341 98.1075 125.056 98.0162 124.787C97.9249 124.518 97.781 124.27 97.593 124.057C97.4115 123.876 97.1946 123.735 96.9559 123.642C96.7172 123.549 96.4619 123.507 96.206 123.517V123.514ZM95.617 129.48C94.9955 129.866 94.4562 130.37 94.03 130.965C93.6769 131.5 93.4945 132.129 93.507 132.77C93.4912 133.131 93.5506 133.491 93.6815 133.828C93.8123 134.165 94.0117 134.471 94.267 134.727C94.5239 134.974 94.8279 135.167 95.1608 135.294C95.4937 135.421 95.8488 135.481 96.205 135.468C96.8513 135.487 97.4901 135.325 98.049 135C98.613 134.634 99.0976 134.157 99.474 133.6L95.617 129.48ZM118.4 125.892C118.725 125.877 119.048 125.941 119.342 126.079C119.637 126.216 119.894 126.422 120.091 126.68C120.528 127.311 120.742 128.07 120.699 128.836V136H119.863V128.951C119.904 128.341 119.761 127.732 119.454 127.203C119.326 127.013 119.151 126.859 118.947 126.756C118.742 126.653 118.515 126.604 118.286 126.614C117.323 126.614 116.449 127.33 115.664 128.761V136H114.809V128.951C114.85 128.34 114.708 127.73 114.4 127.2C114.272 127.01 114.097 126.856 113.893 126.753C113.688 126.649 113.46 126.601 113.231 126.611C112.268 126.611 111.402 127.327 110.631 128.758V136H109.776V126.082H110.517L110.593 127.811C110.904 127.262 111.322 126.782 111.824 126.4C112.268 126.066 112.808 125.886 113.363 125.887C113.895 125.868 114.414 126.059 114.807 126.419C115.211 126.82 115.477 127.339 115.567 127.901C115.889 127.333 116.318 126.833 116.831 126.429C117.279 126.079 117.832 125.89 118.4 125.892ZM130.465 130.642C130.465 130.909 130.452 131.168 130.427 131.421H124.364C124.322 132.504 124.618 133.573 125.21 134.48C125.449 134.792 125.759 135.042 126.114 135.211C126.469 135.379 126.859 135.461 127.252 135.449C127.684 135.458 128.114 135.381 128.516 135.221C128.934 135.033 129.322 134.783 129.666 134.48L130.103 135.012C129.708 135.381 129.255 135.683 128.763 135.905C128.28 136.11 127.759 136.213 127.234 136.205C126.702 136.225 126.173 136.116 125.693 135.886C125.213 135.656 124.796 135.312 124.479 134.885C123.741 133.772 123.387 132.447 123.472 131.114C123.394 129.764 123.728 128.422 124.431 127.267C124.712 126.833 125.1 126.478 125.557 126.237C126.014 125.996 126.526 125.876 127.043 125.889C127.538 125.863 128.032 125.963 128.477 126.181C128.923 126.399 129.305 126.726 129.589 127.133C130.232 128.186 130.537 129.41 130.463 130.642H130.465ZM129.61 130.357C129.666 129.398 129.449 128.442 128.983 127.602C128.778 127.285 128.492 127.028 128.155 126.857C127.818 126.687 127.441 126.61 127.064 126.633C126.69 126.626 126.32 126.713 125.989 126.886C125.657 127.058 125.373 127.311 125.164 127.621C124.603 128.561 124.325 129.643 124.364 130.737H129.608L129.61 130.357ZM136.279 125.892C136.732 125.879 137.182 125.959 137.604 126.125C138.025 126.292 138.408 126.542 138.73 126.861L138.293 127.431C138.019 127.184 137.708 126.981 137.371 126.831C137.031 126.692 136.666 126.624 136.298 126.631C135.881 126.621 135.468 126.718 135.099 126.912C134.73 127.107 134.417 127.392 134.189 127.742C133.6 128.757 133.328 129.925 133.41 131.096C133.327 132.241 133.595 133.385 134.179 134.374C134.41 134.715 134.724 134.993 135.091 135.181C135.458 135.368 135.867 135.46 136.279 135.448C137.055 135.437 137.799 135.139 138.369 134.612L138.806 135.144C138.475 135.479 138.082 135.745 137.648 135.928C137.215 136.11 136.749 136.205 136.279 136.208C135.747 136.229 135.217 136.12 134.736 135.893C134.254 135.665 133.835 135.324 133.513 134.9C132.765 133.78 132.409 132.444 132.5 131.1C132.418 129.743 132.778 128.397 133.526 127.262C133.837 126.826 134.251 126.472 134.73 126.233C135.21 125.995 135.741 125.877 136.277 125.892H136.279ZM144.943 125.892C145.285 125.872 145.627 125.932 145.942 126.068C146.257 126.203 146.536 126.409 146.757 126.671C147.215 127.297 147.44 128.063 147.394 128.837V136H146.539V128.951C146.539 127.393 145.963 126.614 144.81 126.614C144.231 126.613 143.669 126.814 143.223 127.184C142.687 127.637 142.238 128.185 141.9 128.8V136H141.045V122.035L141.9 121.921V127.849C142.25 127.285 142.705 126.793 143.24 126.4C143.74 126.056 144.335 125.878 144.941 125.892H144.943ZM156.36 134.043C156.34 134.4 156.398 134.756 156.531 135.088C156.652 135.323 156.855 135.505 157.101 135.601L156.911 136.209C156.551 136.135 156.226 135.94 155.99 135.658C155.755 135.316 155.626 134.913 155.619 134.499C155.364 135.02 154.966 135.457 154.471 135.76C153.977 136.063 153.406 136.219 152.826 136.209C152.449 136.229 152.072 136.167 151.721 136.028C151.37 135.888 151.054 135.675 150.793 135.402C150.278 134.805 150.012 134.033 150.052 133.245C150.027 132.803 150.104 132.362 150.278 131.955C150.451 131.548 150.716 131.187 151.052 130.899C151.847 130.307 152.826 130.014 153.816 130.073H155.5V128.933C155.55 128.315 155.378 127.699 155.016 127.195C154.808 126.992 154.558 126.836 154.284 126.739C154.01 126.643 153.718 126.607 153.429 126.634C152.577 126.663 151.738 126.856 150.959 127.204L150.712 126.539C151.591 126.141 152.54 125.922 153.505 125.893C155.405 125.893 156.355 126.887 156.355 128.876L156.36 134.043ZM152.921 135.487C153.495 135.476 154.052 135.287 154.514 134.947C154.977 134.607 155.323 134.132 155.505 133.587V130.737H153.905C151.942 130.737 150.96 131.567 150.96 133.226C150.921 133.829 151.108 134.425 151.483 134.898C151.664 135.096 151.887 135.252 152.136 135.354C152.385 135.456 152.653 135.501 152.921 135.487ZM163.846 125.892C164.189 125.87 164.532 125.928 164.849 126.062C165.165 126.195 165.446 126.4 165.67 126.661C166.125 127.292 166.346 128.061 166.297 128.837V136H165.442V128.951C165.442 127.393 164.866 126.614 163.713 126.614C163.134 126.613 162.572 126.814 162.126 127.184C161.591 127.637 161.143 128.184 160.806 128.799V136H159.951V126.082H160.692L160.768 127.868C161.057 127.293 161.495 126.806 162.037 126.459C162.578 126.111 163.203 125.915 163.846 125.892ZM170.667 126.082V136H169.812V126.082H170.667ZM170.211 121.882C170.298 121.878 170.385 121.891 170.466 121.922C170.547 121.953 170.622 122 170.684 122.06C170.746 122.121 170.796 122.194 170.829 122.274C170.862 122.355 170.878 122.441 170.876 122.528C170.879 122.614 170.865 122.699 170.833 122.779C170.802 122.859 170.755 122.932 170.695 122.993C170.631 123.054 170.555 123.102 170.472 123.133C170.388 123.164 170.3 123.178 170.211 123.174C170.124 123.177 170.038 123.162 169.958 123.129C169.878 123.096 169.806 123.047 169.746 122.984C169.63 122.86 169.565 122.697 169.565 122.528C169.565 122.359 169.63 122.195 169.746 122.072C169.806 122.009 169.878 121.96 169.958 121.928C170.038 121.895 170.125 121.88 170.211 121.883V121.882ZM177.317 125.891C177.77 125.878 178.22 125.958 178.642 126.124C179.063 126.291 179.446 126.541 179.768 126.86L179.331 127.43C179.057 127.183 178.746 126.98 178.409 126.83C178.068 126.691 177.703 126.623 177.335 126.63C176.918 126.62 176.505 126.717 176.136 126.911C175.767 127.106 175.454 127.391 175.226 127.741C174.637 128.756 174.365 129.924 174.447 131.095C174.364 132.241 174.633 133.384 175.217 134.373C175.448 134.714 175.762 134.992 176.129 135.18C176.496 135.367 176.905 135.459 177.317 135.447C178.093 135.436 178.837 135.138 179.407 134.611L179.844 135.143C179.513 135.478 179.12 135.744 178.686 135.927C178.253 136.109 177.787 136.204 177.317 136.207C176.785 136.227 176.256 136.119 175.775 135.892C175.293 135.664 174.874 135.324 174.552 134.9C173.803 133.78 173.446 132.444 173.536 131.1C173.454 129.743 173.814 128.397 174.562 127.262C174.873 126.825 175.288 126.471 175.768 126.232C176.249 125.994 176.781 125.877 177.317 125.892V125.891ZM184.217 125.891C184.727 125.885 185.233 125.975 185.709 126.157C186.192 126.354 186.638 126.63 187.03 126.974L186.593 127.525C186.252 127.24 185.871 127.006 185.462 126.831C185.078 126.681 184.668 126.607 184.256 126.612C183.709 126.587 183.172 126.763 182.746 127.106C182.555 127.269 182.404 127.474 182.303 127.704C182.203 127.935 182.156 128.185 182.167 128.436C182.158 128.654 182.199 128.872 182.285 129.072C182.372 129.273 182.502 129.452 182.667 129.595C183.195 129.982 183.791 130.265 184.424 130.431C185.229 130.641 185.976 131.031 186.609 131.571C186.832 131.812 187.005 132.096 187.116 132.405C187.227 132.714 187.274 133.043 187.255 133.371C187.27 133.757 187.198 134.142 187.045 134.497C186.892 134.852 186.662 135.168 186.372 135.423C185.746 135.956 184.942 136.234 184.12 136.202C183.514 136.215 182.913 136.101 182.353 135.869C181.834 135.639 181.358 135.321 180.947 134.929L181.441 134.397C181.807 134.73 182.224 135.003 182.676 135.204C183.129 135.384 183.614 135.471 184.101 135.461C184.697 135.487 185.281 135.294 185.745 134.919C185.958 134.73 186.126 134.495 186.236 134.232C186.345 133.969 186.395 133.685 186.38 133.4C186.394 133.046 186.322 132.694 186.171 132.374C186.003 132.08 185.752 131.842 185.449 131.69C184.974 131.444 184.478 131.241 183.967 131.082C183.211 130.889 182.509 130.525 181.915 130.018C181.712 129.81 181.553 129.563 181.448 129.292C181.344 129.021 181.296 128.731 181.307 128.441C181.3 128.095 181.37 127.751 181.513 127.435C181.656 127.12 181.868 126.84 182.133 126.617C182.712 126.124 183.454 125.866 184.214 125.892L184.217 125.891Z" fill="white"/>
<path d="M283.462 62H221.538C206.882 62 195 74.7126 195 90.3944V129.606C195 145.287 206.882 158 221.538 158H283.462C298.118 158 310 145.287 310 129.606V90.3944C310 74.7126 298.118 62 283.462 62Z" fill="#54B686"/>
<path d="M220.764 103H222.766L224.152 99.194H231.126L232.534 103H234.536L228.596 87.38H226.682L220.764 103ZM224.768 97.522L227.606 89.69H227.65L230.532 97.522H224.768ZM236.753 107.356H238.535V101.152H238.557C239.349 102.384 240.669 103.132 242.363 103.132C245.311 103.132 247.577 100.976 247.577 97.72C247.577 94.552 245.399 92.154 242.363 92.154C240.735 92.154 239.371 92.902 238.557 94.178H238.535V92.286H236.753V107.356ZM242.121 101.504C240.075 101.504 238.447 99.986 238.447 97.72C238.447 95.52 239.921 93.782 242.099 93.782C244.123 93.782 245.773 95.344 245.773 97.72C245.773 99.876 244.277 101.504 242.121 101.504ZM248.588 103H250.59L253.516 99.106H253.538L256.442 103H258.466L254.55 97.588L258.422 92.286H256.332L253.516 96.202H253.472L250.7 92.286H248.588L252.482 97.566L248.588 103ZM260.751 103H262.467L268.495 95.036H268.539V103H270.321V92.286H268.627L262.577 100.426H262.533V92.286H260.751V103ZM273.663 103H278.811C281.737 103 282.837 101.79 282.837 100.008C282.837 98.534 281.847 97.654 280.527 97.39V97.368C281.715 96.994 282.287 96.158 282.287 94.904C282.287 93.166 280.989 92.286 278.657 92.286H273.663V103ZM275.401 96.818V93.804H278.569C279.757 93.804 280.527 94.2 280.527 95.256C280.527 96.312 279.845 96.818 278.503 96.818H275.401ZM275.401 101.482V98.248H278.789C280.219 98.248 281.011 98.776 281.011 99.854C281.011 100.976 280.263 101.482 278.679 101.482H275.401ZM241.159 127.698C241.159 124.464 238.871 122.198 235.175 122.154V116.808H233.393V122.154C229.697 122.242 227.431 124.574 227.431 127.698C227.431 130.866 229.653 133.044 233.393 133.132V137.356H235.175V133.132C238.827 133.022 241.159 130.8 241.159 127.698ZM235.153 131.592V123.694C237.771 123.848 239.333 125.366 239.333 127.698C239.333 129.942 237.925 131.46 235.153 131.592ZM229.235 127.72C229.235 125.432 230.775 123.848 233.437 123.716V131.592C230.665 131.46 229.235 130.008 229.235 127.72ZM248.512 133.132C251.68 133.132 254.034 130.91 254.034 127.654C254.034 124.398 251.68 122.154 248.512 122.154C245.19 122.154 242.968 124.574 242.968 127.654C242.968 130.734 245.19 133.132 248.512 133.132ZM248.512 131.504C246.29 131.504 244.794 129.788 244.794 127.654C244.794 125.52 246.268 123.782 248.512 123.782C250.58 123.782 252.208 125.366 252.208 127.654C252.208 129.942 250.558 131.504 248.512 131.504ZM258.811 133H260.593V123.87H264.179V122.286H255.225V123.87H258.811V133ZM270.898 133.132C274.066 133.132 276.42 130.91 276.42 127.654C276.42 124.398 274.066 122.154 270.898 122.154C267.576 122.154 265.354 124.574 265.354 127.654C265.354 130.734 267.576 133.132 270.898 133.132ZM270.898 131.504C268.676 131.504 267.18 129.788 267.18 127.654C267.18 125.52 268.654 123.782 270.898 123.782C272.966 123.782 274.594 125.366 274.594 127.654C274.594 129.942 272.944 131.504 270.898 131.504Z" fill="white"/>
<defs>
<filter id="filter0_d_140_4" x="0" y="0" width="262" height="222" filterUnits="userSpaceOnUse" color-interpolation-filters="sRGB">
<feFlood flood-opacity="0" result="BackgroundImageFix"/>
<feColorMatrix in="SourceAlpha" type="matrix" values="0 0 0 0 0 0 0 0 0 0 0 0 0 0 0 0 0 0 127 0" result="hardAlpha"/>
<feOffset/>
<feGaussianBlur stdDeviation="20"/>
<feColorMatrix type="matrix" values="0 0 0 0 0 0 0 0 0 0 0 0 0 0 0 0 0 0 0.122 0"/>
<feBlend mode="normal" in2="BackgroundImageFix" result="effect1_dropShadow_140_4"/>
<feBlend mode="normal" in="SourceGraphic" in2="effect1_dropShadow_140_4" result="shape"/>
</filter>
<clipPath id="clip0_140_4">
<rect width="103" height="103" fill="white" transform="translate(60 136)"/>
</clipPath>
</defs>
</svg>
