<svg width="72" height="72" viewBox="0 0 72 72" fill="none" xmlns="http://www.w3.org/2000/svg">
<g clip-path="url(#clip0_297_7)">
<path d="M24.8844 18.1807C19.2071 20.1879 14.4955 21.8928 14.4032 21.9768C13.8573 22.4639 13.8573 23.4717 14.3948 23.9588C14.4871 24.0344 16.318 24.7314 18.4596 25.4873C20.6012 26.2516 22.4573 26.915 22.5916 26.9654L22.8184 27.0578V31.3578V35.6494L23.02 36.0693C23.7086 37.5223 26.2198 38.7064 30.125 39.4203C31.9811 39.7563 33.1233 39.8486 35.5 39.8486C37.8768 39.8486 39.019 39.7563 40.875 39.4203C44.7047 38.7232 47.325 37.4887 47.9801 36.0693L48.1817 35.6494V31.3578C48.1817 27.3434 48.1901 27.0578 48.3328 26.999C48.6604 26.8646 51.2807 25.9492 51.3227 25.9492C51.3479 25.9492 51.3731 28.4688 51.3731 31.551V37.1611L50.9196 37.3963C50.4324 37.6482 49.7186 38.3285 49.4246 38.7988C48.7612 39.899 48.7192 41.4527 49.3323 42.6033C49.643 43.1744 50.424 43.9471 50.9448 44.1822L51.3647 44.3754L51.3899 46.9453C51.4151 49.3305 51.4235 49.5236 51.583 49.7924C51.8266 50.2039 52.1457 50.4055 52.6076 50.4475C53.1031 50.4895 53.5147 50.2963 53.7834 49.8932C53.9766 49.616 53.9766 49.574 53.9766 47.0293V44.4426L54.4553 44.2074C56.4541 43.208 57.1512 40.5205 55.8998 38.6645C55.5639 38.1605 54.7996 37.4971 54.3629 37.3207L53.9766 37.1611V31.0723V24.9834L55.1692 24.5635C55.8242 24.3367 56.4457 24.0764 56.5549 23.9924C57.1848 23.4969 57.1428 22.3127 56.4793 21.8844C56.1182 21.6576 35.7688 14.5273 35.4832 14.5273C35.3321 14.5357 30.5617 16.1734 24.8844 18.1807ZM43.4533 20.0199C47.8373 21.5652 51.5074 22.867 51.6082 22.9006C51.7762 22.9678 50.2813 23.5221 43.7137 25.8484C39.2709 27.4273 35.5672 28.7207 35.5 28.7207C35.3237 28.7207 19.1735 22.9762 19.2575 22.951C19.2994 22.9342 22.9612 21.6408 27.3955 20.0703C31.8299 18.5082 35.4664 17.2232 35.4748 17.2148C35.4832 17.2148 39.0778 18.4746 43.4533 20.0199ZM30.8389 29.8965C33.9715 31.0135 35.2229 31.4334 35.5 31.4334C35.7772 31.4334 37.1293 30.9883 40.7071 29.7117L45.5362 27.99L45.5614 31.4754C45.5866 35.5066 45.6873 35.0615 44.6123 35.5906C43.3358 36.2205 41.2866 36.7664 38.9434 37.0855C37.6164 37.2703 33.8035 37.3039 32.4766 37.1359C29.8311 36.8084 27.7819 36.2793 26.3037 35.5486C25.3295 35.0615 25.4219 35.4982 25.4219 31.4838V27.9732L25.993 28.1748C26.3037 28.2756 28.4873 29.0566 30.8389 29.8965ZM53.1703 39.6723C53.4811 39.7982 53.8422 40.235 53.9178 40.5709C54.0018 40.8984 53.8338 41.3604 53.5399 41.6459C52.8848 42.2842 51.7846 41.9734 51.541 41.0748C51.3899 40.5121 51.6922 39.9242 52.2549 39.6723C52.5824 39.5295 52.826 39.5295 53.1703 39.6723Z" fill="#54B686"/>
</g>
<g filter="url(#filter0_d_297_7)">
<circle cx="36" cy="32" r="30" stroke="#54B686" stroke-width="4" shape-rendering="crispEdges"/>
<circle cx="36" cy="32" r="30" stroke="#54B686" stroke-width="4" shape-rendering="crispEdges"/>
</g>
<defs>
<filter id="filter0_d_297_7" x="0" y="0" width="72" height="72" filterUnits="userSpaceOnUse" color-interpolation-filters="sRGB">
<feFlood flood-opacity="0" result="BackgroundImageFix"/>
<feColorMatrix in="SourceAlpha" type="matrix" values="0 0 0 0 0 0 0 0 0 0 0 0 0 0 0 0 0 0 127 0" result="hardAlpha"/>
<feOffset dy="4"/>
<feGaussianBlur stdDeviation="2"/>
<feComposite in2="hardAlpha" operator="out"/>
<feColorMatrix type="matrix" values="0 0 0 0 0 0 0 0 0 0 0 0 0 0 0 0 0 0 0.25 0"/>
<feBlend mode="normal" in2="BackgroundImageFix" result="effect1_dropShadow_297_7"/>
<feBlend mode="normal" in="SourceGraphic" in2="effect1_dropShadow_297_7" result="shape"/>
</filter>
<clipPath id="clip0_297_7">
<rect width="43" height="43" fill="white" transform="translate(14 11)"/>
</clipPath>
</defs>
</svg>
