<svg width="72" height="72" viewBox="0 0 72 72" fill="none" xmlns="http://www.w3.org/2000/svg">
<path d="M47.243 14.7664C42.3984 15.4625 42.0539 15.5258 41.85 15.6875C41.7305 15.7859 38.5242 19.6109 34.7273 24.1953C30.9305 28.7797 27.8156 32.5344 27.8086 32.5484C27.7945 32.5625 27.6187 32.5203 27.4148 32.4641C26.8805 32.3023 26.0367 32.3164 25.5094 32.4992C24.8695 32.7102 24.4617 33.0195 23.4773 34.018C22.507 34.9953 22.3664 35.2484 22.4648 35.7688C22.507 36.0008 22.7039 36.2328 23.7375 37.2734L24.9539 38.5109L23.2523 40.2125L21.5508 41.9141H21.0938C19.7508 41.9141 18.5695 42.8 18.1125 44.1359C18.0211 44.4031 18 44.7688 18 45.957C18 47.2508 18.0211 47.4969 18.1336 47.8414C18.4641 48.8047 19.1953 49.5359 20.1656 49.8664C20.4961 49.9789 20.7562 50 22.043 50C23.2312 50 23.5969 49.9789 23.8641 49.8875C25.2 49.4305 26.0859 48.2492 26.0859 46.9063V46.4492L27.7875 44.7477L29.4891 43.0461L30.7266 44.2625C31.7672 45.2961 31.9992 45.493 32.2312 45.5352C32.7516 45.6336 33.0047 45.493 33.982 44.5227C34.9805 43.5383 35.2898 43.1305 35.5008 42.4906C35.6836 41.9633 35.6977 41.1195 35.5359 40.5781C35.4727 40.3672 35.4516 40.1914 35.4867 40.1633C35.5219 40.1422 39.3188 36.9922 43.9242 33.1742C49.4508 28.5898 52.3336 26.15 52.4109 26.0023C52.5375 25.7492 54 15.6313 54 14.9914C54 14.6398 53.9789 14.5906 53.6906 14.3094C53.3883 14 53.3812 14 52.9031 14.007C52.6359 14.0141 50.0906 14.3516 47.243 14.7664ZM51.6445 16.475C51.6305 16.5664 51.3563 18.4578 51.0469 20.6797C50.7375 22.9016 50.4422 24.793 50.393 24.8773C50.3227 25.0039 34.425 38.2367 34.1086 38.4266C34.0453 38.4688 33.8062 38.2719 33.2859 37.7586L32.5547 37.0273L38.7 30.875C42.082 27.493 44.8945 24.6242 44.9578 24.4977C45.1828 24.0406 45.0352 23.4148 44.6344 23.1195C44.3742 22.9227 43.8187 22.8805 43.5164 23.0352C43.3828 23.0984 40.507 25.918 37.125 29.3L30.9727 35.4453L30.2414 34.7141C29.7281 34.1938 29.5312 33.9547 29.5734 33.8914C29.6297 33.8 42.8062 17.8742 43.0031 17.6633C43.0805 17.5789 46.4203 17.0586 51.6305 16.3273C51.6586 16.3203 51.6656 16.3906 51.6445 16.475ZM27 34.6438C27.2531 34.8125 33.0258 40.5641 33.2648 40.8875C33.4195 41.0984 33.4688 41.2391 33.4688 41.4922C33.4688 41.8578 33.293 42.1531 32.7727 42.6523L32.4844 42.9336L28.7789 39.2211L25.0664 35.5156L25.3477 35.2273C25.8469 34.707 26.1422 34.5313 26.5008 34.5313C26.6836 34.5313 26.9016 34.5805 27 34.6438ZM27.2461 40.7891L27.9492 41.4922L26.4867 42.9547L25.0312 44.4102L24.3141 43.6859L23.5898 42.9688L25.0312 41.5273C25.8258 40.7328 26.4867 40.0859 26.5078 40.0859C26.5289 40.0859 26.8594 40.4023 27.2461 40.7891ZM22.7602 45.2328L23.9062 46.3789V46.7164C23.9062 47.1664 23.7445 47.4969 23.4211 47.6938C23.1891 47.8414 23.0906 47.8555 22.043 47.8555C20.7773 47.8555 20.5945 47.7992 20.2992 47.3281C20.1586 47.1031 20.1445 46.9906 20.1445 45.957C20.1445 44.9094 20.1586 44.8109 20.3062 44.5789C20.5031 44.2555 20.8195 44.1008 21.2695 44.0938H21.6211L22.7602 45.2328Z" fill="#54B686"/>
<g filter="url(#filter0_d_297_5)">
<path fill-rule="evenodd" clip-rule="evenodd" d="M36 60C51.464 60 64 47.464 64 32C64 16.536 51.464 4 36 4C20.536 4 8 16.536 8 32C8 47.464 20.536 60 36 60ZM36 64C53.6731 64 68 49.6731 68 32C68 14.3269 53.6731 0 36 0C18.3269 0 4 14.3269 4 32C4 49.6731 18.3269 64 36 64Z" fill="#54B686"/>
<path fill-rule="evenodd" clip-rule="evenodd" d="M36 60C51.464 60 64 47.464 64 32C64 16.536 51.464 4 36 4C20.536 4 8 16.536 8 32C8 47.464 20.536 60 36 60ZM36 64C53.6731 64 68 49.6731 68 32C68 14.3269 53.6731 0 36 0C18.3269 0 4 14.3269 4 32C4 49.6731 18.3269 64 36 64Z" fill="#54B686"/>
</g>
<defs>
<filter id="filter0_d_297_5" x="0" y="0" width="72" height="72" filterUnits="userSpaceOnUse" color-interpolation-filters="sRGB">
<feFlood flood-opacity="0" result="BackgroundImageFix"/>
<feColorMatrix in="SourceAlpha" type="matrix" values="0 0 0 0 0 0 0 0 0 0 0 0 0 0 0 0 0 0 127 0" result="hardAlpha"/>
<feOffset dy="4"/>
<feGaussianBlur stdDeviation="2"/>
<feComposite in2="hardAlpha" operator="out"/>
<feColorMatrix type="matrix" values="0 0 0 0 0 0 0 0 0 0 0 0 0 0 0 0 0 0 0.25 0"/>
<feBlend mode="normal" in2="BackgroundImageFix" result="effect1_dropShadow_297_5"/>
<feBlend mode="normal" in="SourceGraphic" in2="effect1_dropShadow_297_5" result="shape"/>
</filter>
</defs>
</svg>
