<svg width="72" height="72" viewBox="0 0 72 72" fill="none" xmlns="http://www.w3.org/2000/svg">
<g clip-path="url(#clip0_297_2)">
<path opacity="0.967" fill-rule="evenodd" clip-rule="evenodd" d="M54.0342 14.9658C52.2341 14.9658 50.4339 14.9658 48.6338 14.9658C48.6338 15.6722 48.6338 16.3786 48.6338 17.085C49.2039 17.0736 49.7736 17.085 50.3428 17.1191C46.1377 21.3356 41.9223 25.5396 37.6963 29.7314C34.8262 26.8955 31.9664 24.0472 29.1172 21.1865C29.0716 21.1409 29.0716 21.0954 29.1172 21.0498C29.5874 20.6025 30.0317 20.1354 30.4502 19.6484C30.0203 19.15 29.5645 18.6715 29.083 18.2129C29.0146 18.1673 28.9463 18.1673 28.8779 18.2129C27.4538 19.637 26.0296 21.0612 24.6055 22.4854C24.5599 22.5309 24.5599 22.5765 24.6055 22.6221C25.0849 23.113 25.5749 23.5915 26.0752 24.0576C26.5755 23.5915 27.0654 23.113 27.5449 22.6221C30.4274 25.5046 33.3099 28.387 36.1924 31.2695C35.2695 32.1924 34.3467 33.1152 33.4238 34.0381C28.6363 29.2392 23.8398 24.454 19.0342 19.6826C19.0342 29.777 19.0342 39.8714 19.0342 49.9658C29.1286 49.9658 39.223 49.9658 49.3174 49.9658C44.546 45.1602 39.7608 40.3637 34.9619 35.5762C35.8848 34.6533 36.8076 33.7305 37.7305 32.8076C40.613 35.6901 43.4954 38.5726 46.3779 41.4551C45.887 41.9346 45.4085 42.4245 44.9424 42.9248C45.4085 43.4251 45.887 43.9151 46.3779 44.3945C46.4235 44.4401 46.4691 44.4401 46.5146 44.3945C47.9388 42.9704 49.363 41.5462 50.7871 40.1221C50.8327 40.0537 50.8327 39.9854 50.7871 39.917C50.3285 39.4355 49.85 38.9797 49.3516 38.5498C48.8646 38.9683 48.3975 39.4126 47.9502 39.8828C47.9046 39.9284 47.8591 39.9284 47.8135 39.8828C44.9528 37.0336 42.1045 34.1738 39.2686 31.3037C43.4604 27.0777 47.6644 22.8623 51.8809 18.6572C51.915 19.2264 51.9264 19.7961 51.915 20.3662C52.6214 20.3662 53.3278 20.3662 54.0342 20.3662C54.0342 18.5661 54.0342 16.7659 54.0342 14.9658ZM21.2217 24.8096C21.1534 31.1099 21.1306 37.4217 21.1533 43.7451C22.0195 43.7565 22.8854 43.7451 23.751 43.7109C26.4749 40.9984 29.1865 38.2754 31.8857 35.542C28.3296 31.9631 24.7749 28.3856 21.2217 24.8096ZM33.5264 37.1143C30.7521 39.7859 28.0063 42.4975 25.2891 45.249C25.2549 46.1146 25.2435 46.9805 25.2549 47.8467C31.5668 47.8581 37.8786 47.8467 44.1904 47.8125C40.622 44.2554 37.0673 40.6894 33.5264 37.1143ZM23.1357 45.8643C22.4749 45.8643 21.8142 45.8643 21.1533 45.8643C21.1533 46.5251 21.1533 47.1858 21.1533 47.8467C21.8142 47.8467 22.4749 47.8467 23.1357 47.8467C23.1357 47.1858 23.1357 46.5251 23.1357 45.8643Z" fill="#54B686"/>
</g>
<g filter="url(#filter0_d_297_2)">
<circle cx="36" cy="32" r="30" stroke="#54B686" stroke-width="4" shape-rendering="crispEdges"/>
</g>
<defs>
<filter id="filter0_d_297_2" x="0" y="0" width="72" height="72" filterUnits="userSpaceOnUse" color-interpolation-filters="sRGB">
<feFlood flood-opacity="0" result="BackgroundImageFix"/>
<feColorMatrix in="SourceAlpha" type="matrix" values="0 0 0 0 0 0 0 0 0 0 0 0 0 0 0 0 0 0 127 0" result="hardAlpha"/>
<feOffset dy="4"/>
<feGaussianBlur stdDeviation="2"/>
<feComposite in2="hardAlpha" operator="out"/>
<feColorMatrix type="matrix" values="0 0 0 0 0 0 0 0 0 0 0 0 0 0 0 0 0 0 0.25 0"/>
<feBlend mode="normal" in2="BackgroundImageFix" result="effect1_dropShadow_297_2"/>
<feBlend mode="normal" in="SourceGraphic" in2="effect1_dropShadow_297_2" result="shape"/>
</filter>
<clipPath id="clip0_297_2">
<rect width="35" height="35" fill="white" transform="matrix(-1 0 0 1 54 15)"/>
</clipPath>
</defs>
</svg>
