<svg width="72" height="72" viewBox="0 0 72 72" fill="none" xmlns="http://www.w3.org/2000/svg">
<path d="M20.8633 24.3438C20.6777 24.3633 20.043 24.4316 19.4473 24.4902C17.8555 24.6465 16.3906 24.9297 15.4629 25.2617C14.6816 25.5352 14.5449 25.5547 13.1777 25.5547C11.9668 25.5547 11.6836 25.584 11.4883 25.7207C11.0977 25.9941 11.0098 26.1602 11 26.6484C11 27.0293 11.0488 27.1758 11.2832 27.4297L11.5664 27.752L12.7871 27.7812L13.998 27.8203L14.0566 28.7578C14.1445 30.0469 14.457 31.9219 14.8184 33.2695C15.7266 36.6973 17.25 38.7285 19.4863 39.4902C20.1113 39.7051 20.2578 39.7051 23.9883 39.7148C28.2266 39.7148 28.3828 39.6953 29.4473 39.1289C31.3906 38.0938 32.6992 35.8672 33.4902 32.293C33.7539 31.1113 34.0469 29.041 34.0469 28.3574C34.0469 27.5957 34.0957 27.5371 34.8379 27.3613C35.6973 27.1465 36.3027 27.1465 37.1621 27.3613C37.9531 27.5566 37.8457 27.2734 38.0898 29.6562C38.5879 34.5098 40.1699 37.8496 42.5527 39.1289C43.6172 39.6953 43.7832 39.7148 47.9727 39.7148C51.498 39.7148 51.8496 39.6953 52.416 39.5195C55.1016 38.6895 56.8105 35.9453 57.6309 31.1406C57.7676 30.3691 57.9043 29.3047 57.9336 28.7773L58.002 27.8203L59.2129 27.7812L60.4336 27.752L60.7168 27.4297C60.9512 27.1758 61 27.0293 61 26.6484C60.9902 26.1602 60.9023 25.9941 60.5117 25.7207C60.3164 25.584 60.0332 25.5547 58.8223 25.5547C57.4746 25.5547 57.3184 25.5352 56.5762 25.2715C55.6484 24.9492 54.7109 24.7441 52.9922 24.5098C51.4297 24.2949 45.043 24.2656 43.4219 24.4609C41.7715 24.666 40.2969 24.9492 39.5352 25.2031L38.8223 25.4473L37.9727 25.2422C36.8008 24.9492 35.1992 24.9492 34.0273 25.2422L33.1777 25.4473L32.4941 25.2129C30.6484 24.5879 28.7246 24.373 24.623 24.334C22.748 24.3145 21.0488 24.3242 20.8633 24.3438ZM27.4551 26.6289C28.9785 26.7656 30.4629 27.0098 31.1855 27.2246L31.8008 27.4199V27.9961C31.8008 28.3086 31.7324 29.0898 31.6543 29.7148C31.2344 32.9277 30.3457 35.3203 29.1152 36.5508C28.1973 37.4688 28.2168 37.4688 24.0371 37.4688C19.8574 37.4688 19.877 37.4688 18.9492 36.541C17.9434 35.5449 17.1523 33.6895 16.6641 31.1797C16.4297 29.9492 16.2734 28.709 16.2734 27.9766V27.4199L16.9375 27.2246C17.6992 26.9902 19.1543 26.7559 20.4727 26.6387C21.8203 26.5215 26.2051 26.5117 27.4551 26.6289ZM51.4297 26.6387C52.9434 26.7754 54.2715 26.9902 55.0723 27.2246L55.7266 27.4199V27.9961C55.7266 28.3086 55.6582 29.0898 55.5801 29.7148C55.1602 32.9277 54.2715 35.3203 53.041 36.5508C52.123 37.4688 52.1426 37.4688 47.9629 37.4688C43.7832 37.4688 43.8027 37.4688 42.8848 36.5508C41.6543 35.3203 40.7656 32.9277 40.3457 29.7148C40.2676 29.0898 40.1992 28.3086 40.1992 27.9961V27.4199L40.8145 27.2246C41.5273 27.0098 43.0605 26.7559 44.3984 26.6387C45.7656 26.5215 50.1406 26.5117 51.4297 26.6387Z" fill="#54B686"/>
<g filter="url(#filter0_d_297_6)">
<circle cx="36" cy="32" r="30" stroke="#54B686" stroke-width="4" shape-rendering="crispEdges"/>
<circle cx="36" cy="32" r="30" stroke="#54B686" stroke-width="4" shape-rendering="crispEdges"/>
</g>
<defs>
<filter id="filter0_d_297_6" x="0" y="0" width="72" height="72" filterUnits="userSpaceOnUse" color-interpolation-filters="sRGB">
<feFlood flood-opacity="0" result="BackgroundImageFix"/>
<feColorMatrix in="SourceAlpha" type="matrix" values="0 0 0 0 0 0 0 0 0 0 0 0 0 0 0 0 0 0 127 0" result="hardAlpha"/>
<feOffset dy="4"/>
<feGaussianBlur stdDeviation="2"/>
<feComposite in2="hardAlpha" operator="out"/>
<feColorMatrix type="matrix" values="0 0 0 0 0 0 0 0 0 0 0 0 0 0 0 0 0 0 0.25 0"/>
<feBlend mode="normal" in2="BackgroundImageFix" result="effect1_dropShadow_297_6"/>
<feBlend mode="normal" in="SourceGraphic" in2="effect1_dropShadow_297_6" result="shape"/>
</filter>
</defs>
</svg>
